<?xml version="1.0" encoding="UTF-8" standalone="no"?>
<!-- Created with Inkscape (http://www.inkscape.org/) -->

<svg
   version="1.1"
   id="svg1"
   width="412.64001"
   height="381.44"
   viewBox="0 0 412.64001 381.44"
   sodipodi:docname="brightness-cutoff-0.5-centerline-trace.svg"
   inkscape:version="1.3.2 (091e20e, 2023-11-25, custom)"
   xmlns:inkscape="http://www.inkscape.org/namespaces/inkscape"
   xmlns:sodipodi="http://sodipodi.sourceforge.net/DTD/sodipodi-0.dtd"
   xmlns="http://www.w3.org/2000/svg"
   xmlns:svg="http://www.w3.org/2000/svg">
  <sodipodi:namedview
     id="namedview1"
     pagecolor="#ffffff"
     bordercolor="#000000"
     borderopacity="0.25"
     inkscape:showpageshadow="2"
     inkscape:pageopacity="0.0"
     inkscape:pagecheckerboard="0"
     inkscape:deskcolor="#d1d1d1"
     showguides="true"
     inkscape:zoom="14.345656"
     inkscape:cx="206.02056"
     inkscape:cy="181.16983"
     inkscape:window-width="1280"
     inkscape:window-height="748"
     inkscape:window-x="-8"
     inkscape:window-y="-8"
     inkscape:window-maximized="1"
     inkscape:current-layer="svg1">
    <sodipodi:guide
       position="662.67118,-630.34576"
       orientation="0,-1"
       id="guide1"
       inkscape:locked="false" />
  </sodipodi:namedview>
  <defs
     id="defs1" />
  <g
     id="g1">
    <path
       style="stroke:#020202;fill:none"
       d="m 130.88,156.64 c 0.23707,-0.23627 0.18464,-0.4009 1.28,-1.15951 0.20553,-0.14234 0.8495,-0.49502 1.12,-0.63604 0.83825,-0.43695 1.80145,-0.94082 2.55766,-1.46173 0.46581,-0.32088 0.66609,-0.60323 1.1495,-0.82284 0.6985,-0.31732 1.76793,-0.37158 2.53284,-0.17111 0.56431,0.14789 1.12811,0.6344 1.36915,1.06568 0.21929,0.39241 0.29127,0.56239 0.2195,0.93864 -0.0954,0.50037 -0.79671,0.83611 -1.26865,1.01728 -1.41931,0.54487 -3.88666,1.89016 -5.28,2.43543 -1.28425,0.50258 -1.17456,0.81098 -2.07938,0.62197 -0.34556,-0.0722 -0.70348,-0.49197 -0.88975,-0.70851 -0.35161,-0.40877 -0.49755,-0.65854 -0.81568,-0.97852 -0.27339,-0.27498 -0.46668,-0.49422 -0.51481,-0.79 -0.2131,-1.30947 0.45206,-1.32125 1.57962,-2.27468 1.07618,-0.90998 1.9912,-1.79604 2.97506,-2.76557 0.50651,-0.49912 0.99113,-0.78873 1.50494,-1.23617 1.39007,-1.21047 2.98886,-2.5967 4.48,-3.79444 2.72319,-2.18734 5.05692,-4.13574 7.84001,-6.21963 6.72694,-5.03693 13.98956,-9.33558 21.44,-13.18162 2.15269,-1.11125 4.22964,-2.27283 6.4,-3.35814 8.6491,-4.32508 17.35285,-8.19736 26.24,-12.05258 6.46783,-2.80572 12.86402,-5.59418 19.36,-8.32 5.49539,-2.30596 10.97937,-4.513124 16.48,-6.925702 2.60773,-1.14375 5.29416,-2.307969 7.84,-3.581719 1.21328,-0.607031 2.36234,-1.227832 3.52,-1.948516 6.99389,-4.354043 12.18393,-10.84416 18.72,-15.986172 8.0424,-6.327051 17.00709,-11.824043 25.28,-17.79789 1.43203,-1.034063 2.79549,-2.114922 4.16,-3.255059 2.21914,-1.854258 4.50236,-3.893906 6.56,-5.74582 0.35234,-0.31711 0.61149,-0.517227 0.96,-0.841329 0.35877,-0.333632 0.59703,-0.590273 0.96,-0.918554 0.3525,-0.318828 0.61065,-0.517578 0.96,-0.841328 0.29797,-0.276133 0.50869,-0.495547 0.8,-0.758672 0.34149,-0.308438 0.6224,-0.5275 0.96,-0.841446 0.90801,-0.844375 1.75865,-1.650234 2.72,-2.518554 2.07645,-1.875508 4.13988,-3.680469 6.24,-5.488008 1.07451,-0.924805 2.10971,-1.845703 3.2,-2.730508 3.01981,-2.450703 5.97959,-4.833477 9.12,-7.100742 6.9361,-5.007617 14.42418,-9.487969 21.92,-13.645664 2.5377,-1.407578 5.19992,-2.7632816 7.84,-4.0612504 1.02922,-0.5060156 2.35965,-1.1373047 3.36,-1.5832031 2.22809,-0.993125 2.03977,-1.4065625 2.39211,-1.8907422 0.10176,-0.1398438 0.14082,-0.3611328 0.81035,-0.7217188 0.6752,-0.3636328 2.44965,-0.7235156 3.19754,-0.9060547 2.21473,-0.5405859 4.42606,-1.1560156 6.56,-1.2529687 0.50926,-0.023125 1.07524,-0.053047 1.6,-0.121211 0.57172,-0.074258 0.88356,-0.1249218 1.44,-0.1779297 0.51223,-0.048789 1.09211,-0.027148 1.6,-0.027148 0.54547,0 0.84196,0 1.44,0 2.15344,0 4.71008,-0.1086328 6.88,0.2278906 3.11996,0.4838672 6.26543,1.1524219 9.12,2.5334766 1.0552,0.5105078 2.05743,1.0951953 3.04,1.7742969 2.68141,1.8532813 4.9925,4.5914059 6.58223,7.4643359 1.77488,3.207539 2.42055,6.88625 2.92504,10.4 0.0595,0.41457 0.1607,1.368828 0.20707,1.76 0.0384,0.323985 0.0148,0.619336 0.0693,0.96 0.19523,1.220742 0.70445,1.031719 0.88555,1.76 0.12929,0.519922 0.0566,3.472031 0.0507,4.32 -0.0135,1.965313 -0.67907,0.902969 -0.93617,2.56 -0.28004,1.804688 -0.30641,4.358516 -0.57161,6.24 -0.61418,4.357383 -1.67336,8.607774 -2.97617,12.8 -3.03648,9.770821 -7.94187,18.81002 -13.75199,27.200001 -2.8802,4.159121 -6.09301,8.161816 -9.61024,11.84 -0.74441,0.778496 -1.46863,1.473691 -2.23371,2.24 -0.79789,0.799179 -1.45722,1.607207 -2.24062,2.4 -1.2959,1.311406 -2.66656,2.507209 -3.99938,3.839999 -2.22043,2.22043 -6.65937,5.464 -8.04765,7.52063 -0.58368,0.86468 -0.0653,0.84761 -0.85618,1.70914 -0.213,0.23205 -0.56265,0.35386 -0.69863,0.3922 -0.57621,0.16246 -1.06304,0.11553 -2.07754,0.14037 -4.8607,0.11907 -9.7407,0.75758 -14.56,1.53198 -1.90664,0.30636 -4.05277,0.82441 -5.92,1.11545 -0.81832,0.12754 -1.55074,0.0793 -2.24,0.34714 -0.81387,0.31629 -1.79215,0.51608 -2.72,0.71668 -1.885,0.40752 -3.89308,0.87299 -5.76,1.40641 -5.07805,1.45094 -10.14695,2.78498 -15.2,4.10063 -3.43816,0.89517 -6.89205,2.1373 -10.24,2.74048 -0.71228,0.12832 -0.90629,0.24592 -1.6,0.53938 -0.66445,0.28109 -1.4882,0.54271 -2.24,0.77543 -1.38863,0.42982 -3.26277,0.93877 -4.48,1.22877 -0.39439,0.094 -1.49777,0.38812 -1.88641,0.67025 -0.57445,0.41701 -0.56576,0.65328 -0.67125,0.8258 -0.26265,0.42957 0.0788,1.02149 -1.44877,1.83 -0.50087,0.2651 -2.06705,0.79567 -2.71357,1.07332 -2.55844,1.09873 -5.10291,2.26907 -7.68,3.38088 -9.89773,4.27016 -19.44613,9.41438 -29.44,13.48272 -2.5377,1.03306 -5.12139,1.85125 -7.68,2.68517 -4.61996,1.50576 -9.50885,2.64703 -14.24,3.76866 -6.86446,1.62736 -13.74791,3.21253 -20.64,4.72642 -9.41455,2.06795 -18.79399,4.15705 -28.16,6.27617 -2.60424,0.58924 -5.23489,1.16942 -7.84,1.74801 -1.39112,0.30897 -2.78231,0.62373 -4.16,0.96816 -2.92116,0.7303 -5.84704,1.53493 -8.8,2.17334 -1.2223,0.26426 -2.34122,0.58295 -3.52,0.90221 -2.08806,0.56553 -4.1876,1.18352 -6.24,1.83926 -0.97199,0.31055 -1.91495,0.62498 -2.88,0.96 -0.88666,0.30781 -2.35295,0.70477 -3.2,1.10248 -0.37292,0.1751 -0.72437,0.42027 -1.12,0.53678 -0.44946,0.13234 -0.66117,0.12019 -1.12,0.33457 -1.18331,0.55285 -2.45483,1.27232 -3.68,1.84629 -0.96385,0.45154 -2.45089,0.98998 -3.36001,1.17297 -0.49217,0.0991 -1.26372,0.21773 -1.92,0.11457 -0.90768,-0.1427 -0.85308,-0.0183 -1.76,-0.30246 -0.6067,-0.1901 -0.95336,-0.37104 -1.32765,-0.87706 -0.47819,-0.64648 -0.68221,-1.36648 -0.98469,-2.2232 -0.18449,-0.52254 -0.0602,-0.81789 -0.50185,-1.41049 -0.23865,-0.32019 -0.55584,-0.50947 -0.7042,-0.62865 -0.48066,-0.38613 -0.99986,-0.9559 -1.76222,-1.45801 -1.31918,-0.86885 -3.1956,-1.83275 -4.95939,-1.77593 -0.9689,0.0312 -2.12357,0.28408 -3.04,0.5416 -0.6869,0.193 -1.21401,0.3248 -1.7537,0.77593 -0.49902,0.41715 -0.71776,0.78948 -1.07259,1.23555 -0.62365,0.78401 -2.29868,2.81459 -3.09371,3.4858 -0.85109,0.71856 -1.63915,0.83029 -2.07061,1.0794 -0.17559,0.10136 -0.40304,0.16267 -0.5384,0.57209 -0.10648,0.32207 0.0536,0.88964 0.11136,1.10271 0.21639,0.79783 0.82364,1.88359 1.4847,2.71988 1.06967,1.35325 2.68911,2.26104 4.21295,2.99875 2.83025,1.37016 6.71814,2.37334 9.92,1.69434 1.3309,-0.28225 1.82605,-0.56188 2.23926,-0.72383 0.14624,-0.0573 0.34679,-0.0454 0.71853,-0.33308 0.2349,-0.18178 0.40844,-0.80719 0.47,-1.07618 0.12884,-0.56295 0.27832,-1.18324 0.40506,-1.75988 0.16485,-0.75006 0.30773,-0.95264 0.41629,-1.6 0.0393,-0.23418 0.0596,-0.79373 0.0716,-1.44 0.0188,-1.00973 0.32876,-1.23078 0.47925,-1.44 m 0.64,-26.56 c -0.4231,-0.46213 -0.48102,-0.7626 -1.92,-1.4784 -0.32691,-0.16261 -0.84247,-0.35299 -1.11629,-0.50406 -0.40168,-0.2216 -0.56205,-0.36578 -0.63235,-0.74062 -0.0794,-0.42333 0.27615,-1.12883 0.58864,-1.59692 0.40517,-0.60691 0.72658,-1.01678 1.32235,-1.58568 0.7469,-0.71321 1.57129,-1.34938 2.39765,-2.02643 1.41719,-1.16113 2.94494,-2.25535 4.48,-3.2674 4.16441,-2.74551 8.64949,-5.09438 13.12001,-7.40186 0.67437,-0.34808 1.24839,-0.70082 1.92,-1.039 3.49408,-1.75945 7.05853,-3.44842 10.56,-5.19914 0.74703,-0.37352 1.34515,-0.67356 2.08,-1.04098 2.15728,-1.07865 4.39742,-2.11871 6.56,-3.2 0.97623,-0.48812 2.06797,-1.05545 3.04,-1.51457 0.62099,-0.29332 1.10929,-0.48152 1.76,-0.80457 0.70326,-0.34914 1.24238,-0.62107 1.92,-0.95988 1.34603,-0.67301 2.80423,-1.40387 4.16,-2.08 0.80183,-0.39988 1.45673,-0.65641 2.24,-1.04149 5.50043,-2.70416 10.99086,-5.57492 16.48,-8.31949 0.71963,-0.35982 1.36035,-0.6792 2.08,-1.03902 7.00467,-3.50234 14.11886,-7.250704 20.96,-10.951095 1.22281,-0.661426 2.44637,-1.303535 3.68,-1.991738 2.20818,-1.231856 4.51676,-2.512617 6.72,-3.707051 1.20689,-0.654297 2.40728,-1.298262 3.68,-2.008262 2.00512,-1.118574 4.03824,-2.287851 6.08,-3.510371 8.08496,-4.840918 16.10525,-9.788867 22.88,-16.186289 1.24238,-1.173184 2.62162,-2.307773 3.84,-3.525684 5.27123,-5.269179 10.67457,-10.638867 16,-15.842343 1.75854,-1.718243 3.51209,-3.580821 5.28,-5.271368 0.58777,-0.562031 1.01986,-0.882695 1.6,-1.448632 1.92293,-1.87586 4.07086,-3.76418 6.08,-5.585665 1.12197,-1.017187 2.21289,-1.871093 3.36,-2.82582 1.00059,-0.832773 1.88916,-1.559648 2.88,-2.339883 1.40697,-1.107929 2.66197,-2.098125 4.16,-3.166289 1.14818,-0.818672 2.10869,-1.522187 3.2,-2.284805 0.4402,-0.307617 0.83432,-0.564609 1.28,-0.861875 0.61061,-0.407265 1.03422,-0.711406 1.6,-1.103671 0.3883,-0.269219 0.7224,-0.465704 1.12,-0.718164 0.51498,-0.326993 0.89945,-0.59461 1.44,-0.950977 1.57873,-1.040781 3.14879,-2.003398 4.8,-2.94793 4.04289,-2.312617 8.27399,-4.416328 12.48,-6.451211 3.81551,-1.845937 7.88121,-3.1332029 11.84,-4.6134763 3.14407,-1.175625 6.35555,-2.226211 9.6,-3.0480079 1.21121,-0.3067968 3.27637,-0.8336328 4.32,-0.9737109 1.06606,-0.1430859 1.38102,-0.040547 1.76,0.1138281 m 13.28,11.36 h 1.28 m -239.68,139.52 c 0.65157,-0.005 1.03775,-0.0376 1.92,-0.1832 1.03729,-0.17121 3.05883,-0.88975 4.16,-1.2568 3.26392,-1.08797 6.52366,-2.18135 9.6,-3.71951 3.42596,-1.71299 6.53625,-3.78072 9.6,-5.92529 1.7266,-1.2086 3.37728,-2.42995 5.12,-3.63112 4.37119,-3.01285 8.93052,-5.909 13.6,-8.43468 1.21718,-0.65836 2.39767,-1.28874 3.68,-1.92989 1.44367,-0.72183 2.63998,-1.37615 4,-2.07814 2.84478,-1.46834 5.92693,-2.89541 8.8,-4.32174 1.2882,-0.63953 2.53953,-1.14043 3.84,-1.75877 0.99273,-0.47201 1.87802,-0.82686 2.88,-1.28395 4.86129,-2.21765 9.80556,-4.33105 14.72,-6.43703 11.76758,-5.04273 23.63246,-10.41711 34.56,-17.18779 8.50793,-5.271503 16.14275,-11.790566 24,-18.076035 1.43914,-1.15125 2.89406,-2.315273 4.32,-3.456055 0.79516,-0.636152 1.77951,-1.394433 2.56,-1.979746 0.7683,-0.576172 1.94635,-1.287773 2.70568,-1.844316 0.5002,-0.366602 0.93756,-0.847773 1.45495,-1.282969 2.68316,-2.256933 5.56791,-4.340508 8.31937,-6.480879 7.39475,-5.752383 14.74076,-11.331465 22.4,-16.916308 4.73762,-3.454532 9.48707,-6.833829 14.4,-10.109102 1.60063,-1.067109 3.15653,-2.104336 4.8,-3.2 0.66438,-0.44293 1.26114,-0.840742 1.92,-1.28 5.94262,-3.961758 12.41442,-8.112461 18.72,-11.267188 3.59129,-1.796758 7.22438,-3.374726 11.04,-4.378008 1.57641,-0.414492 2.99348,-0.75746 4.16,-0.781484 m -31.36,8.32 -0.64,0.32 M 91.360003,67.2 c -0.355381,1.999903 -1.650615,4.052872 -2.489746,6.4 -0.607578,1.699454 -1.255322,3.349551 -1.879639,5.120001 -0.819453,2.323828 -1.645674,4.707128 -2.455556,7.04 -0.799883,2.304062 -1.603575,4.717031 -2.272461,7.04 -0.702603,2.440078 -1.405538,4.951816 -2.157168,7.359999 -2.047759,6.56094 -4.01878,13.76639 -4.571724,20.64 -0.04655,0.57869 -0.09588,0.9076 -0.146543,1.44 -0.250474,2.63203 -0.347163,5.50641 -0.347163,8.32 0,0.68736 -1.37e-4,1.97233 0,2.4 2.54e-4,0.79682 0.0088,1.01162 0.03914,1.28 0.0096,0.0853 0.05127,0.27242 0.13938,0.64 0.08706,0.36316 0.126197,0.57391 0.130254,0.8 0.0074,0.41106 -0.137524,0.83801 -0.359634,1.08406 -0.357768,0.39633 -0.570004,0.32803 -1.709135,0.91422 -0.728897,0.37508 -2.811465,1.66963 -3.360001,1.97235 -0.329409,0.18177 -1.085073,0.35855 -1.185307,0.85011 -0.0961,0.47131 0.228681,0.70414 0.719751,1.09692 0.76185,0.60935 2.619814,1.66279 1.380371,2.62345 -0.669175,0.51868 -1.430801,-0.0494 -2.034815,-0.53123 -0.579321,-0.46216 -1.347778,-1.83853 -2.536298,-1.12705 -0.735142,0.44008 -0.522071,1.02621 -0.632466,1.59717 -0.13606,0.70371 -0.424024,1.76766 -0.573457,2.56 -0.319497,1.6941 -0.39961,3.26305 -0.234078,4.31988 0.04308,0.275 0.102505,0.46799 0.232842,0.6158 l 0.247158,0.24135 c 0.875743,0.41526 2.296172,-0.87545 4.296299,-1.1764 1.497461,-0.22534 2.168506,-0.2003 3.520001,0.44494 1.871875,0.89369 3.063232,1.79385 3.672964,3.55443 0.279521,0.80711 0.399907,1.48912 0.550986,2.24 0.289658,1.43965 0.389507,1.59424 0.41605,2.88 0.972314,0.003 1.09001,0.0692 1.28,0.16443 0.533691,0.26766 0.898901,0.5251 1.275556,1.27557 0.255811,0.50969 -0.138271,1.28984 0.821851,1.96135 0.545308,0.38139 1.022153,0.30922 1.582593,0.29717 0.930166,-0.02 1.930391,-0.2102 2.88,-0.59518 0.495859,-0.20101 1.298662,-0.65008 1.76,-0.85789 0.487451,-0.21957 1.011631,-0.17766 1.487656,-0.62039 0.475332,-0.44209 0.51836,-1.05359 0.633086,-1.46506 0.218477,-0.78357 0.648037,-1.95685 1.0242,-3.04 0.484882,-1.39619 0.965937,-2.84111 1.616045,-4.16 0.876357,-1.77787 2.073652,-3.37851 3.259258,-4.96 0.764746,-1.0201 2.076523,-2.73084 2.370996,-3.84 0.377334,-1.42127 0.500039,-1.55726 0.162949,-2.37863 -0.122461,-0.2984 -0.406152,-0.47906 -0.797275,-0.65717 -0.334805,-0.15246 -0.511231,-0.27617 -0.636915,-0.3726 -0.111699,-0.0857 -0.740976,-0.76103 -1.12,-0.81062 -0.469072,-0.0614 -0.583496,0.2051 -0.64,0.25211 -0.38249,0.31824 -0.328906,0.99377 -1.76,1.22334 -0.44956,0.0721 -1.767851,0.26033 -2.4,0.55531 -2.019463,0.94232 -3.597051,2.43514 -4.889746,4.26826 -1.656758,2.3494 -2.699795,5.10586 -3.47667,7.84 -0.300015,1.05588 -0.685762,2.74067 -0.939141,3.52 -0.284048,0.87367 -0.541455,1.01635 -0.783208,1.25283 -0.425058,0.4158 -0.863174,0.75662 -1.271235,1.14717 M 291.68001,70.88 c 0.25213,0.181387 0.45463,0.384141 1.12025,0.485196 0.61313,0.09309 1.75645,0.341347 2.39975,0.68666 0.89113,0.478359 1.52297,1.193867 1.92,2.028144 M 57.600002,73.76 c -0.01246,0.603594 -0.102729,0.972911 -0.145679,1.6 -0.04877,0.712032 3.9e-5,1.558184 -0.01667,2.24 -0.0133,0.542813 -0.100615,0.816192 -0.143335,1.440001 -0.208916,3.050722 -0.01432,6.404765 -0.01432,9.44 0,0.696738 -0.0011,1.045722 0,1.76 0.0023,1.438593 0.159912,2.143144 0.16,3.52 3.9e-5,0.579238 -0.01927,0.88957 0.04568,1.44 0.0533,0.451699 0.101396,0.689316 0.111977,1.12 0.0098,0.399316 -0.01022,0.727441 0.01666,1.12 0.049,0.715586 0.115435,1.518398 0.213706,2.24 0.104273,0.765659 0.213155,1.353909 0.344073,2.079999 0.383945,2.12947 0.85206,4.41846 1.314321,6.56 0.580317,2.68848 1.399736,5.21846 2.273579,7.84 1.617656,4.85297 4.076724,9.35305 6.360494,13.92 0.615932,1.2317 1.689018,2.91152 2.262592,4 0.361431,0.6859 0.420054,1.02883 0.869629,1.29543 0.464541,0.27549 1.34587,-0.166 2.027286,-0.34766 0.878281,-0.23414 1.263193,-0.24464 1.76,-0.30777 m 222.560007,-60 v 0.16 m 88.64,3.2 -1.28,1.280001 m -117.92,4.32 -0.64,0.64 m 24.8,3.2 1.12,1.12 m -7.68,2.08 c -4.63676,2.838339 -8.96672,5.065898 -13.28,8.446406 -0.80645,0.632031 -1.73064,1.313413 -2.4,1.953593 m 88.48,-9.119999 c 0.11086,0.460273 0.2111,1.071523 0.27434,1.6 0.065,0.54332 0.0901,0.829941 0.0162,1.44 -0.0863,0.711543 -0.30949,1.278496 -0.66633,1.92 -2.0223,3.635409 -6.16176,6.641899 -9.22418,9.412829 -1.49105,1.34914 -4.50668,4.04547 -5.5184,5.46717 -0.98711,1.38713 -0.41761,1.59861 -0.0816,2.08 m -45.44,-12.96 0.32,-0.16 m -29.92,1.92 -1.92,1.92 -1.44,1.44 -4.80234,4.96 -2.12334,2.1984 -1.07432,0.76023 -2.56,1.32186 -1.44,0.71902 -3.52,1.56049 m 45.6,-14.72 0.32,-0.16 m 37.44,0.48 -2.08,1.44 M 83.840003,135.2 c 0.208086,-0.899 0.01942,-1.06601 0.862969,-2.06506 0.426797,-0.50547 1.592138,-1.1997 2.337031,-1.44851 0.675986,-0.2258 1.429248,-0.32618 2.08,-0.32618 2.039209,0 3.756436,0.83168 4.376172,1.62704 0.255401,0.32777 0.476963,0.89359 0.613584,1.25271 0.405508,1.06592 0.59168,0.854 0.770244,3.04 -0.960273,0.12137 -1.31042,0.15633 -1.6,0.13223 -0.849551,-0.0707 -2.038613,0.0199 -4.96,-0.87778 -1.116641,-0.34312 -2.642148,-0.68451 -3.36,-0.86111 -0.201055,-0.0495 -0.741143,-0.27049 -1.12,-0.28742 -0.367432,-0.0164 -0.537832,0.0761 -0.64,0.11137 -0.311348,0.10761 -0.675479,0.42039 -1.6,0.48369 -0.942188,0.0645 -1.784502,-0.2543 -2.082222,-0.95778 -0.185552,-0.43843 -0.119658,-0.7674 -0.08766,-0.9432 0.09645,-0.52982 0.135493,-0.77836 0.640249,-1.92 0.344502,-0.7792 1.061704,-1.71182 1.628022,-2.4 1.29273,-1.57092 2.752066,-2.9724 4.221607,-4.3342 3.262178,-3.02301 6.821983,-5.84068 10.56,-8.30531 3.171172,-2.09088 6.446607,-4.04721 9.759997,-5.79555 2.47647,-1.30672 4.81862,-2.43187 7.36,-3.59554 2.9857,-1.36711 6.86316,-2.99811 9.44,-3.7294 m 168.80001,0.16 c -1.37199,0.84275 -3.3574,2.2583 -4.96,3.46025 -3.84164,2.88124 -7.92574,6.21668 -11.52,9.38543 -0.54984,0.48475 -0.90035,0.87891 -1.44,1.36715 -1.109,1.00338 -2.27674,2.00151 -3.36,3.06668 -0.90041,0.88537 -1.17598,1.04842 -1.92,1.76049 m 59.2,-17.76 -0.64,0.64 m -77.6,-0.48 c -0.61233,0.31975 -0.94432,0.48121 -1.6,0.8 m 67.84,0.16 -0.64,0.48 m 11.04,-0.48 c -1.3007,0.79621 -2.92756,1.65963 -4.48,2.62803 -3.46965,2.16433 -6.89137,4.9365 -10.08,7.55023 -1.22773,1.00637 -3.96107,3.24459 -4.73297,4.22803 -1.12951,1.43906 -0.285,1.65016 0.25297,2.23371 m 6.72,-15.68 -4.8,2.88 m -66.4,-0.96 c -0.73463,0.43324 -1.45869,0.81924 -2.24,1.28 m 67.84,0 -0.8,0.64 m 60,-0.32 c 1.1095,0 3.62203,0.16 5.76,0.16 0.68086,0 1.267,-0.0314 1.92,0.0457 0.42524,0.0502 0.66422,0.10079 1.12,0.11198 0.94957,0.0233 2.21926,0.17978 3.2,0.29752 3.47532,0.41722 7.04133,1.05211 10.24,2.29742 1.48243,0.57715 3.08172,1.18978 4.48,1.95717 1.11996,0.61463 2.18551,1.2816 3.2,2.10863 2.04153,1.66426 3.96247,3.48764 5.38493,5.6616 1.51906,2.32156 2.70109,4.95691 3.52,7.52 1.21484,3.80234 1.62531,7.71967 2.00222,11.68 0.0624,0.65565 0.12969,0.97147 0.13274,1.6 0.007,1.44428 -0.10957,3.04834 -0.1616,4.48 -0.14321,3.9392 -1.60051,8.66783 -3.17606,12.48 -0.94961,2.29766 -2.28164,4.84117 -3.59148,6.88 -0.43258,0.67334 -0.75539,1.27358 -1.21629,1.92 -1.03336,1.44932 -2.24364,3.00967 -3.37446,4.32 -0.46339,0.53695 -0.76597,0.91067 -1.28234,1.44 -0.98266,1.00731 -2.03527,2.03922 -3.03766,3.04 -1.33945,1.33731 -2.8666,2.55662 -4.32,3.74789 -1.10172,0.90301 -2.19207,1.75752 -3.36,2.5842 -1.56394,1.10699 -3.19562,2.20969 -4.8,3.26742 -3.13355,2.06588 -6.65816,4.01928 -10.08,5.63555 -1.73769,0.82078 -3.53129,1.68393 -5.28,2.43236 -7.56105,3.23612 -15.32539,5.83629 -23.2,8.02467 -5.2775,1.46662 -10.78449,2.65248 -16.16,3.5484 -5.01072,0.83512 -10.37371,1.63551 -15.2,1.97383 -0.46836,0.0328 -0.79668,0.11746 -1.28,0.13939 -2.35078,0.10672 -5.03293,0.24869 -7.36,0.5542 -0.71793,0.0943 -1.05441,0.0921 -1.76,0.0921 -2.75863,1.8e-4 -6.14305,-0.1267 -8.96,0.20568 -0.82531,0.0974 -1.19955,0.11432 -2.08,0.11432 -2.08414,0 -4.66957,8e-4 -6.72,0 -1.07633,-4.1e-4 -1.4851,-0.15392 -2.72,-0.15988 -1.16238,-0.006 -1.77672,-1.2e-4 -3.04,-1.2e-4 -0.79969,0 -1.41678,-0.005 -2.08,-0.0921 -0.91814,-0.12055 -1.2799,-0.0678 -2.4,-0.0679 -0.75467,-4e-5 -1.18244,-0.0273 -1.92,-0.11432 -0.63512,-0.0749 -0.93926,-0.0454 -1.6,-0.0457 -0.64606,-2.5e-4 -0.99332,-0.0124 -1.6,-0.0921 -0.82998,-0.10896 -1.22049,-0.0602 -1.92,-0.0685 -0.8319,-0.01 -1.71746,-0.14801 -2.72,-0.16 -8.87027,-0.10602 -17.90881,-1.09387 -26.72,-1.94655 -4.22656,-0.409 -8.26516,-1.27752 -12.32,-2.46492 -1.93069,-0.56537 -3.64381,-1.22264 -5.6,-1.88111 -3.83143,-1.28969 -8.10721,-2.56518 -12.16,-2.66445 -0.60026,-0.0147 -0.88992,0.009 -1.44,-0.005 -0.4277,-0.0105 -0.69604,-0.0619 -1.12,-0.11198 -0.39928,-0.0471 -0.70496,-0.0309 -1.12,-0.06 -2.34285,-0.16423 -5.81719,-0.57982 -8.16,-0.79765 -1.5953,-0.14832 -3.00844,-0.36604 -4.64,-0.641 -2.50315,-0.42185 -5.07303,-0.99252 -7.52,-1.60728 -2.31702,-0.58211 -4.50549,-1.24637 -6.88,-1.84 -4.13102,-1.03276 -8.37079,-2.21084 -12.48,-3.23949 -2.18632,-0.54729 -4.42302,-1.29872 -6.56,-1.84014 -0.81284,-0.20594 -1.17226,-0.36891 -2.08,-0.5969 -0.91749,-0.23043 -1.80157,-0.37365 -2.72,-0.60296 -3.05609,-0.76303 -6.44392,-1.43696 -9.12,-2.2268 -0.61759,-0.18229 -3.43303,-1.12229 -4.15976,-0.81483 -0.83906,0.35498 -0.92253,0.74602 -1.12025,0.94137 -0.16167,-0.25168 -0.31006,-0.65926 -0.82295,-0.99271 -0.43941,-0.28569 -0.98832,-0.5393 -1.4147,-0.87618 -0.73482,-0.58058 -1.02127,-1.074 -1.28235,-1.49111 m 169.28001,-70.08 c 1.44059,-1.1073 3.16973,-2.15539 4.48,-2.72 m -68.8,0.32 -0.64,0.32 m -189.600008,0 c -0.205513,0.48703 -0.335332,1.04397 -0.273579,1.6 0.05341,0.48088 0.0757,0.79111 0.286665,1.28 0.204526,0.47397 0.497685,0.88217 0.839013,1.27703 0.434991,0.50322 0.656172,0.58084 1.227286,1.03582 1.024736,0.81635 1.817402,1.88365 2.718271,2.80715 0.566431,0.58066 0.886426,1.01203 1.448643,1.6 1.388188,1.45176 2.876313,3.04943 4.313701,4.47988 1.946802,1.93743 3.983198,3.866 6.08,5.71444 1.122808,0.9898 2.630967,2.1909 3.84,2.97506 0.710215,0.46062 1.169595,1.01855 1.92,1.22382 0.602994,0.16495 1.020748,-0.0728 1.440001,-0.7932 M 256.96001,113.6 c 0.0428,0.17938 0.10578,0.33891 0.14951,0.80395 0.0495,0.52611 0.0914,0.92546 -0.19234,1.42976 -0.24194,0.42996 -0.51258,0.63022 -0.91951,0.97914 -1.60817,1.37897 -3.3345,2.3853 -5.11766,3.30578 -2.13063,1.09987 -4.115,1.95186 -6.24,2.96223 -3.38061,1.6074 -6.71272,3.00359 -10.08,4.54975 -2.56729,1.1788 -5.65752,2.67765 -8.16,3.9289 -1.58701,0.79352 -3.47416,1.73707 -5.12,2.56 -3.22145,1.61073 -6.41535,3.27514 -9.6,4.95555 -9.2744,4.89371 -18.02739,10.49621 -27.2,15.53385 -1.60766,0.88293 -3.21967,1.69972 -4.8,2.60367 -0.74539,0.42637 -1.91862,1.05631 -2.55703,1.50014 -0.85903,0.5972 -0.78584,0.89914 -1.02668,1.27851 -0.10465,0.16486 -0.17922,0.39483 -0.74321,0.69531 -1.14799,0.61164 -2.24015,0.73457 -3.67308,1.03975 -1.87303,0.39891 -4.00676,0.73895 -5.92,1.05988 -4.7023,0.78879 -9.40418,1.65481 -14.08,2.58989 -3.10777,0.6215 -6.71623,1.26097 -9.6,2.11543 -1.4596,0.43248 -1.40294,0.20089 -2.55753,0.50494 -0.42546,0.11203 -0.61707,0.28791 -0.70112,0.3742 -0.27321,0.28054 -0.36125,0.62283 -0.91814,1.13097 -1.89286,1.72717 -4.66671,3.33442 -5.26322,3.6184 m 101.28001,-58.88 -0.16,0.16 m -1.92,0.8 1.12,-0.48 m 67.2,0.96 0.64,-0.32 m -94.56,0.8 0.64,-0.16 m 91.52,0.64 c -2.2909,1.35131 -4.10187,2.48443 -6.4,3.84 m -64.32,-3.36 1.12,-0.32 m -1.92,0.64 v 0.16 m -209.600009,0 c 2.508396,3.99895 7.226506,6.17176 11.36,7.95506 3.47502,1.49922 7.091541,2.72879 10.72,3.93828 2.892374,0.96412 5.862393,1.9865 8.800001,2.87147 3.015737,0.90849 5.740659,1.91218 8.8,2.94199 2.258701,0.76029 4.381841,1.77369 6.56,2.70578 0.920518,0.39391 2.225342,1.04605 3.04,1.44766 0.775494,0.3823 0.768824,0.24542 1.414322,0.71851 0.253564,0.18584 0.705102,0.64733 0.505678,0.46125 M 258.72001,117.92 v 0.32 m -32.96,-0.16 c -1.09287,0.63547 -3.89281,1.99699 -5.44,2.56 m 21.76,-0.16 c 1.61275,-0.67053 4.11517,-1.85648 5.44,-2.4 m -47.68,0.96 h 0.48 m 18.24,2.24 1.12,-0.16 m 20,0.32 c 0.62937,-0.17689 0.96,-0.26771 1.6,-0.32 m 45.92,1.76 c 0.96748,-0.40279 2.09055,-1.12041 3.2,-1.44 m -74.24,1.12 1.6,-0.64 m 19.68,0.64 1.6,-0.64 m -23.68,0.96 -0.16,0.16 m 7.84,0.96 c 0.96603,-0.56172 1.82019,-0.90851 2.56,-1.12 m 11.04,0 -0.16,0.16 m -0.96,0.32 -1.12,0.48 m -24.64,1.44 c 0.9109,-0.37369 1.46953,-0.66732 2.24,-0.8 m 83.2,25.92 c -0.13307,-1.68586 -0.93875,-3.88955 -3.04,-5.16322 -0.66103,-0.40069 -0.97781,-0.65988 -1.28,-0.91678 l 1.28012,-0.94949 1.43988,-0.53977 3.36,-1.22222 14.56,-5.07518 21.28,-6.27482 12.48,-2.96075 3.04,-0.48566 2.72,-0.52816 5.44,-0.56963 9.44,-0.43432 h 1.44 1.92 1.76 m -152.16,0.48 c 0.59064,-0.1874 0.83697,-0.2673 1.44,-0.32 m 4.8,2.88 c 1.82019,-1.06238 4.8399,-2.62596 6.56,-2.88 m -22.88,0.32 c -1.06115,0.56572 -2.19125,0.91799 -3.36,1.6 m 168.48,-1.6 h 1.6 m -157.28,0.48 -0.16,0.16 m 34.4,-0.16 c -0.69322,0.56455 -1.25914,1.12205 -1.92,1.75371 -0.39912,0.38151 -0.70684,0.63141 -1.12,0.98715 -1.27865,1.10098 -3.44121,2.98803 -4.8,4.04705 -0.66731,0.52008 -1.21902,0.9324 -1.92,1.37209 m -66.72,26.24 c 0.29172,-0.006 0.67373,-0.0431 1.44,-0.13517 0.49447,-0.0594 1.39998,-0.24014 1.92,-0.36334 1.28939,-0.30551 2.69068,-0.51965 4,-0.78149 6.87496,-1.3748 13.8249,-2.48414 20.64,-4.13926 4.28519,-1.0407 8.30554,-1.86285 12.48,-3.06074 4.01939,-1.1534 8.05215,-2.20488 12,-3.46494 3.72361,-1.18848 7.7466,-2.48016 11.52,-3.79012 3.06996,-1.06576 5.95869,-2.16832 8.96,-3.36888 8.91459,-3.56596 17.89348,-7.12235 26.88,-10.23112 0.56801,-0.19648 1.04039,-0.36691 1.6,-0.53963 1.7465,-0.53904 3.67461,-1.10359 5.44,-1.54506 2.41963,-0.60507 5.04059,-1.29113 7.52,-1.87876 1.13527,-0.26909 3.5099,-0.70418 4.48,-0.80803 1.18455,-0.12682 1.71109,-0.16557 2.4,-0.29346 m -80.48,0.48 h 0.48 m -2.24,0.96 1.12,-0.48 m -42.56,0.48 -0.8,0.48 m 16.96,6.88 c 0.87845,-0.57934 2.19468,-1.26459 3.2,-1.79506 2.52224,-1.3309 5.12976,-2.49031 7.68,-3.76543 1.21619,-0.60808 2.64,-1.36654 3.68,-1.79951 m -34.08,1.92 1.44,-0.8 m 46.08,3.2 c 0.78195,-0.45639 1.44316,-0.76109 2.24,-1.15951 1.26201,-0.631 2.91547,-1.48566 4,-2.04049 m 12,0 v 0.48 m -26.4,0.8 1.12,-0.32 m -41.6,0.32 c -2.11698,1.29566 -4.48983,2.52703 -6.72,3.79506 -3.53047,2.00732 -7.30684,3.94437 -10.56,6.44494 m 50.08,-6.4 c 1.53902,-0.89826 3.83554,-2.03281 5.12,-2.4 m 27.2,0.48 c -1.37723,1.20305 -2.97102,2.41504 -4.8,3.55074 -1.52694,0.94817 -3.08496,1.88916 -4.64,2.81715 -0.76475,0.45637 -1.4653,0.83797 -2.24,1.31211 m -5.76,-7.2 -0.16,0.16 m -0.96,0.48 -3.2,1.721 -5.12,2.82691 -11.04,6.33209 M 75.200003,134.56 c 0.360464,-0.0744 0.638364,-0.18035 1.28,-0.27197 0.160332,-0.0229 0.584238,-0.0461 0.96,-0.0479 0.963584,-0.005 1.31,-1.2e-4 1.6,-1.2e-4 m 121.760007,0.16 -0.96,0.64 m 158.72,-0.64 h 6.24 m -13.92,0.64 h 0.96 m 20,0 h 1.44 m -131.36,0.16 -1.92,1.44 m -73.12,-1.28 -0.8,0.48 m 22.88,-0.48 c -1.52532,0.8091 -4.03305,2.34156 -5.76,3.36 m 165.28,-3.36 h 0.48 m 26.56,0 c 0.69348,0 0.90653,0 1.6,0 m -297.600007,0.16 c -0.190899,0.19092 -0.420562,0.38608 -1.252837,1.27754 -0.491172,0.52609 -0.97586,0.87342 -1.149385,0.93566 -0.519185,0.18627 -1.078086,-0.11226 -1.597778,-0.9332 m 119.520007,0.64 c 0.73523,-0.45006 1.1334,-0.70135 1.92,-1.12 m -32,0.16 c -1.96108,1.29354 -4.64177,2.49941 -6.4,3.84 m 184,-3.84 h 1.12 M 69.760002,136.8 c -0.07056,0.304 -0.288027,1.01774 -0.754443,1.76 -0.542231,0.86293 -0.814292,1.36309 -1.005557,1.6 m 26.880001,-2.88 c 0.286612,0.39846 0.48,0.37963 0.48,2.24 m 242.880007,-2.08 h 0.96 m -6.08,1.28 h 0.48 m -152,0.96 0.64,-0.32 m 147.36,0.48 0.64,-0.16 m 24.16,0 h 0.64 m -134.56,0.8 0.96,-0.32 m -153.280008,0.16 c -0.329585,0.45258 -0.458501,0.83199 -0.8,1.76 m 171.040008,-1.76 c 1.39328,0.0115 1.8416,0.0384 3.04,0.18963 0.82937,0.10463 1.62642,0.68168 1.90877,1.10531 0.55172,0.82781 0.65267,1.06776 0.97123,1.42506 M 97.920003,141.28 c 0.449375,-0.30588 1.04419,-0.6708 2.719997,-0.78568 1.524,-0.10448 4.54571,0.0914 5.92,0.31853 1.40839,0.23274 3.84158,0.78776 5.28,1.26715 3.23438,1.07793 6.49362,2.6615 9.28,4.4926 1.23622,0.81238 2.33146,1.64932 3.51926,2.6458 1.3312,1.11678 0.66702,2.02482 2.56074,2.55951 1.00124,0.2827 1.18038,-0.3284 1.6,-0.73877 0.46625,-0.45597 1.61925,-2.09521 2.08,-2.87914 m 219.36001,-7.68 h 0.8 m -200.48,0.32 -0.48,0.32 m 29.44,-0.16 0.32,-0.16 m 38.56,0 h 1.44 m 16.8,0 h 0.96 m 88.32,0 h 0.8 m 20.16,0 h 1.12 m -113.28,0.16 c -0.81192,0.47881 -1.43719,0.80604 -2.08,1.12 m -16.64,-0.8 0.32,-0.16 m -68.16,1.12 c 0.65709,-0.36971 0.79178,-0.39346 1.28,-0.48 m 192.96,0 h 0.8 m -134.08,2.88 c 1.60984,-0.98885 2.95543,-2.11156 4.48,-2.56 m -58.08,0.16 c -0.82643,0.5059 -1.46924,0.87539 -2.24,1.28 M 25.280001,153.76 c 1.746284,-0.36025 4.739465,-0.9575 7.04,-1.70717 2.806851,-0.91466 5.524971,-1.81498 8.32,-2.93283 2.618091,-1.04709 5.18317,-2.13957 7.840001,-3.08926 1.895224,-0.67746 3.818696,-1.32541 5.76,-1.81074 2.241616,-0.56041 4.561289,-0.90187 6.88,-1.27432 0.848633,-0.1363 2.258985,-0.36419 3.04,-0.38334 0.787007,-0.0193 1.18562,-0.002 1.6,-0.002 m 165.920008,0.16 -0.48,0.32 m 107.52,-0.32 h 0.48 M 104.16,143.04 h 0.48 m 232.16001,0 h 0.48 m -184.8,0.96 c -0.5112,0.44584 -0.64223,0.5433 -1.12,0.96 m 162.24,-0.8 h 0.8 m 18.88,0 h 0.8 m -195.84001,0 -2.37222,2.10086 -0.90173,0.89322 L 133.92,148 m -0.48,32.96 c 0.36301,0.0674 0.64811,0.14996 1.44,0.15938 1.29094,0.0153 2.45961,0.0437 3.52,0.0191 1.52967,-0.0355 3.57352,-0.30871 5.12001,-0.56815 1.07188,-0.1798 1.99978,-0.40119 3.04,-0.60185 1.87414,-0.36153 3.87062,-0.70553 5.76,-1.02235 4.58098,-0.76816 9.174,-1.47523 13.76,-2.21185 1.54517,-0.24821 3.2947,-0.50016 4.8,-0.74717 3.24353,-0.53225 6.66287,-1.01539 9.92,-1.54777 5.11523,-0.8361 10.17289,-1.57368 15.36,-2.42653 13.97961,-2.29851 28.23765,-4.65902 41.76,-8.81679 10.25574,-3.15338 20.57127,-6.68881 30.56,-10.65223 4.4032,-1.74715 8.89137,-3.49215 13.28,-5.21629 1.97645,-0.77648 4.05775,-1.67779 6.08,-2.29791 1.16176,-0.35625 1.91121,-0.56621 3.04,-0.70963 m -95.68,0.32 c -0.74465,0.43914 -1.80018,1.04113 -2.56,1.44 m 116.96,-0.96 h 0.96 m 19.04,0 h 0.8 m -102.88,0.32 -0.64,0.64 m 134.08,-0.64 h 4.32 m 5.28,0 h 2.72 m -67.36,0.64 h 0.48 m 20.16,0 h 0.32 m 27.84,0 h 1.92 m 21.76,0 h 1.12 m -187.52,0.32 -0.8,0.64 m 17.76,-0.64 v 0.96 m 142.24,-0.96 h 1.12 m -29.6,0.64 h 0.48 m 24.8,0 h 0.96 m -3.04,0.48 0.64,-0.16 m -156.8,0.48 -0.8,0.48 m 154.08,-0.16 h 0.96 m -3.04,0.32 h 0.96 m -133.6,0.16 -0.96,1.28 m -19.52,-0.96 -0.8,0.48 m 151.52,-0.32 h 0.8 m -2.72,0.32 h 0.96 m -222.72001,0.32 -3.52,4.32 m 74.88001,-4.16 -0.96,0.48 m 147.36,0 h 0.96 m -2.56,0.32 h 0.64 m -168.48,0.16 h 0.16 M 125.76,151.04 c -0.38465,0.2074 -0.72097,0.22904 -2.08,0.36975 -0.60365,0.0625 -1.72041,0.27386 -2.4,0.45508 -1.48783,0.39673 -2.99088,0.90884 -4.32,1.62468 -2.63432,1.41881 -4.87281,3.44735 -7.03987,5.41766 -0.78011,0.70928 -1.47129,1.5791 -2.14753,2.37283 -0.48521,0.56953 -0.88594,1.00797 -1.33432,1.6 -1.88307,2.48625 -2.94529,6.00908 -3.07198,8.8 -0.0778,1.71434 -0.13203,2.37506 -0.0615,3.04 0.0217,0.20492 -0.10879,0.56797 0.31161,1.06977 0.49407,0.58972 1.06018,0.38304 1.18357,0.36394 0.51975,-0.0804 0.61459,-0.21685 2.4,-0.15199 3.2155,0.1168 4.66076,0.72609 6.24,0.95828 m 48.64001,-25.76 c -1.93003,1.02895 -3.92351,1.89086 -5.92,2.92137 -0.58342,0.30113 -1.02851,0.58228 -1.6,0.87726 -1.36706,0.70561 -2.80933,1.4262 -4.16,2.18928 -0.90064,0.50883 -1.82895,1.05342 -2.72,1.56186 -1.05072,0.59953 -1.37284,0.28673 -2.14495,0.77172 -0.3663,0.23007 -0.65011,0.61703 -1.05753,0.90109 -0.7189,0.50127 -1.32636,0.83553 -2.07752,1.21642 -0.97865,0.49625 -1.96955,0.90975 -3.04001,1.2184 -1.33408,0.38467 -1.5408,0.15112 -1.79617,0.99989 -0.0469,0.15586 0.10107,1.17068 0.23136,1.58271 0.36612,1.15781 0.79793,1.62229 1.08481,2.4 m 190.24001,-16.48 h 0.48 m -2.72,0.48 0.64,-0.16 m 49.6,0.16 c 0.52141,-0.10209 0.5986,-0.10209 1.12,0 M 127.84,152 128.94963,153.91988 129.92,155.2 m -64.479998,-3.04 c -0.149311,1.15617 -0.320102,2.24022 -0.32,3.84 7.4e-5,1.15701 0.237544,3.01369 0.8,3.84 0.22274,-0.22273 0.287754,-0.28775 1.172593,-1.1726 L 67.360002,158.4 c 0.840933,1.17758 0.962207,1.8115 1.926421,2.69877 0.240245,0.22107 0.796094,0.58332 1.75358,0.98752 0.435283,0.18375 0.930835,0.50613 1.28,0.58297 0.912622,0.20086 1.319687,-0.0703 2.08,-0.25074 1.098066,-0.26061 2.339594,-1.19452 2.74457,-1.77457 0.23979,-0.34346 0.415498,-0.56307 0.61543,-0.80395 m 246.880007,-7.36 h 0.8 m -2.88,0.32 h 0.8 m 59.36,0.16 c 0.88196,0.60236 1.417,1.09031 2.24,1.76 M 129.44,155.04 c -0.36463,0.33692 -0.53619,1.47002 -2.4,0.16 m 247.36001,-0.16 h 0.96 m -308.320008,0.16 0.32,3.2 m 318.080008,-2.88 c 0.0415,0.30649 0.0666,1.33891 0.67641,1.45889 0.76883,0.15127 1.69563,-1.01647 2.04359,-1.29889 m -278.88001,0 -0.64,0.32 m 270.08001,-0.32 h 0.64 m 4,1.92 c 0.57985,0.58154 0.97844,0.78096 1.45344,1.76 0.5,1.03059 0.44524,1.94293 0.30656,3.04 m -95.68,-4.32 c -0.16025,1.12297 0.13227,2.73506 0,4.32 M 138.4,158.72 c 1.2931,-0.16697 4.38835,-0.60266 5.44001,-0.37283 0.94608,0.20676 1.17628,0.52846 1.44,0.85283 M 132.48,158.72 c -0.0635,1.95744 -0.78784,1.61733 -2.24,2.08469 -1.76023,0.5665 -4.33657,2.80752 -5.92,4.3216 -0.60009,0.57383 -1.03234,1.00666 -1.5937,1.59371 -0.46781,0.48924 -1.79235,1.88568 -2.10259,2.4 -0.52012,0.86225 -0.11283,1.02379 0.0163,1.28 M 73.920003,159.36 c -0.757471,1.62434 -1.502686,1.8227 -2.4,2.72 m -5.600001,-2.24 c 0.308745,0.59025 0.9071,0.84301 1.28,0.99012 0.573287,0.22617 0.692788,0.32211 2.24,0.76988 M 132.48,159.84 c 0.6886,0.65334 1.79125,1.46871 3.2,2.71186 0.66574,0.58748 0.92792,0.85216 1.76,1.12814 m 136.16001,-3.52 h 0.96 m -137.44001,0.16 0.64,-0.16 m 134.24001,0.32 h 0.96 m -2.72,0.64 h 0.8 m -114.24,29.12 h 2.08 l 1.76,-0.0457 12.64,-1.20715 2.4,-0.22803 1.28,-0.29765 2.72,-0.44864 6.08,-1.06668 22.08,-4.1942 23.84,-4.79826 12.16,-3.12705 4.16,-1.66974 1.73049,-1.01409 1.5158,-1.67888 2.03371,-1.45407 10.72,-5.37927 5.12,-2.19061 m -180.000007,0.32 c 0.38836,1.50106 0.330967,2.34285 0.646289,3.68 0.05439,0.23065 0.175039,0.96779 0.40334,1.36025 0.509053,0.8751 0.910361,0.47688 1.624072,1.21655 0.381123,0.39498 0.78126,0.96506 1.193584,1.4232 0.438252,0.48693 0.790733,0.81799 1.252715,1.28 1.092491,1.09256 1.823428,1.90621 2.88,2.81149 0.673809,0.57732 1.645303,1.33158 2.240001,1.71802 0.787486,0.51174 0.989856,0.78717 1.279996,1.07049 -0.2652,0.25643 -0.49504,0.52356 -0.803942,0.70111 -0.216621,0.12452 -0.424678,0.17813 -1.116054,0.12532 -1.614297,-0.12332 -3.98419,-0.22621 -4.640001,-0.15914 -0.168935,0.0173 -0.981328,0.0856 -1.183457,0.50295 -0.30998,0.63996 -0.11497,1.02162 -0.0942,1.86976 0.04411,1.80086 -0.05295,3.15781 0.635801,4.27432 0.357578,0.57965 0.898467,0.95881 1.441855,1.36408 1.453555,1.08406 2.205948,1.42014 2.72,1.8816 -0.312734,0.40975 -0.259248,0.91391 -1.29667,1.56408 -1.284716,0.80518 -4.655468,1.6077 -6.38333,2.16875 -6.736914,2.18752 -13.917032,3.28045 -20.480001,5.93965 -1.341894,0.54371 -2.652519,1.2936 -3.84,2.00752 -0.508374,0.30565 -0.938134,0.56399 -1.44,0.91543 -4.947202,3.46445 -8.230122,8.91516 -11.937778,13.48457 -1.320586,1.62752 -2.657271,3.59385 -4.382222,4.80926 -0.777271,0.54766 -1.068365,0.51037 -1.44,0.61285 -0.09372,0.0258 -0.325293,0.0802 -0.64,0.21766 -0.887574,0.38767 -0.718086,0.32615 -1.6,0.75703 -0.357105,0.17445 -0.895801,0.49176 -1.28,0.6648 -1.116856,0.50307 -2.255462,0.90953 -3.360001,1.44803 -1.541626,0.75158 -3.620727,1.3874 -5.28,1.96951 -1.298674,0.45559 -2.195769,0.8575 -3.04,1.52086 0.22646,0.29709 0.467036,0.40975 0.639876,1.44 0.04657,0.2776 0.207346,0.92424 0.320124,1.28 m 352.480009,-64 c -1.20789,1.76844 -2.20582,2.65932 -4,3.88061 -1.17125,0.79726 -2.04156,1.25853 -3.2,2.03939 m -87.68,-5.76 -1.74568,1.75766 -1.13432,1.12234 m -145.92,-1.28 h 0.96 m 64.48,1.28 h 0.48 m -116.800007,0.32 c -0.135888,0.25463 -0.34792,0.50137 -0.317656,1.76 0.01264,0.52561 0.09329,0.99688 0.171113,1.44 0.166524,0.94828 0.514658,2.19162 0.648145,3.04 0.06945,0.44137 0.127148,0.68795 0.31334,1.12 0.212431,0.49295 0.479775,0.90473 0.663457,1.44 0.312304,0.91006 0.07482,1.30578 1.241601,1.44 m 107.520007,-9.44 c 0.48441,-0.0788 0.47556,-0.0788 0.96,0 m -7.2,0.96 h 1.44 m -4.16,0.32 h 1.28 m -4.64,0.64 h 0.64 m -3.52,0.32 h 0.64 M 136.96,177.76 c -0.1089,-0.2167 -0.25416,-0.46289 -0.52628,-1.44 -0.11108,-0.39881 -0.2113,-0.77607 -0.13359,-1.12 0.11643,-0.51525 0.75418,-1.34039 1.15482,-1.74568 0.53406,-0.54028 1.1013,-0.98295 1.74505,-1.37963 1.28865,-0.79404 2.67595,-1.37322 4.16001,-1.60445 0.86391,-0.13461 1.80807,0.0419 2.29555,0.62248 0.30253,0.36029 0.53071,1.30552 0.57013,1.86728 0.0729,1.03863 0.0143,1.29576 0.0143,1.6 m 32.16,-3.52 h 0.96 m 68.8,0 h 0.48 m 128.16,0.64 c -0.6907,0.7499 -1.43328,1.69342 -2.56,2.67371 -1.26554,1.1011 -2.39343,1.75666 -3.52,2.44629 m -127.04,-4.64 h 0.96 m -5.28,0.96 h 0.64 m -3.04,0.32 h 0.8 m -147.040007,0.8 c -0.291709,0.2467 -0.429648,0.53313 -1.6,0.66643 -0.790928,0.0901 -1.86332,0.22703 -2.72,0.33863 -1.968945,0.25648 -3.968203,0.40572 -5.92,0.66285 -6.977129,0.9192 -13.931329,1.68613 -20.480001,4.48049 -1.750727,0.74705 -3.336968,1.58178 -4.96,2.55555 -1.15209,0.69123 -2.53105,1.48668 -3.519385,2.36556 -0.678686,0.60352 -0.844111,0.90287 -1.166294,1.19889 -0.07826,0.0719 -0.27373,0.26988 -0.595928,0.26988 -1.099546,0 -1.041216,-1.04285 -1.118393,-1.33828 M 232.64001,174.4 h 0.64 m -5.44,0.96 h 0.48 M 100.64,176.32 c 1.1165,-0.048 2.2516,-0.20848 2.72,-0.32 m 1.28,0.32 c -6.3e-4,0.82264 -0.12079,1.44231 -0.49678,1.92 -0.20758,0.26373 -0.43191,0.42111 -0.81532,1.12 -0.26866,0.48971 -0.64685,1.51504 -0.86012,2.08 -1.35067,3.57785 -1.69108,4.41924 -2.627776,5.44 0.141591,0.19684 0.309626,0.34983 0.390746,0.64717 0.0472,0.1731 0.0794,0.35092 0.0862,0.63283 0.009,0.36031 -0.0227,1.02781 0.009,1.76 0.0267,0.61016 0.11449,1.05975 0.16235,1.44 0.10901,0.86629 0.42195,2.23791 1.31531,2.90285 0.24218,0.18026 2.72326,0.91198 2.83604,0.91739 0.86048,0.0413 2.25042,-0.28129 3.2526,-0.88704 L 108.16,194.08 c 0.38077,0.28084 0.88684,0.47787 1.38371,1.28246 0.36452,0.5903 1.21337,2.33307 1.73864,3.03754 0.48127,0.64547 0.89738,1.11485 1.35765,1.76 0.95687,1.34123 2.52218,3.28822 2.86532,4.96 0.26866,1.30897 0.48864,2.22836 0.8642,3.04 0.29929,0.64686 0.74188,1.33524 1.3911,1.75432 0.30185,0.19486 0.55109,0.34902 0.95938,0.50248 0.32772,0.12316 0.6121,0.13029 0.96,0.1432 0.3452,0.0128 0.93042,0.0425 1.15395,0.37086 0.67568,0.99266 0.053,1.23033 -0.64605,2.98914 -0.56128,1.41225 -2.18672,3.88547 -3.16,5.44 -2.46696,3.94024 -4.97312,7.87344 -7.63271,11.68 -0.9242,1.32277 -1.8286,2.65594 -2.69691,4 -1.31909,2.04184 -2.60647,4.25067 -3.76889,6.4 -5.280861,9.76442 -10.497619,20.28424 -14.771242,30.56 -1.741563,4.18752 -3.679766,8.21875 -5.173331,12.48 -0.401826,1.14645 -1.201406,2.17754 -1.739384,3.08149 -0.46084,0.77433 0.0069,1.02023 0.03679,2.03851 0.03722,1.26654 0.260761,3.12725 0.344941,4 0.03373,0.34971 0.133408,0.76944 0.15271,1.28 0.03217,0.85086 -0.02518,1.59352 -0.01975,2.72 0.0026,0.54444 0.109546,1.25606 0.145679,1.76 0.03011,0.41987 0.0384,0.77045 0.0384,1.28 0,0.495 -0.0077,0.79867 -0.03037,1.28 -0.05581,1.18735 -0.153828,2.91278 -0.153828,4.16 0,0.65375 -0.130962,1.97098 0.05012,2.37692 0.298862,0.66996 0.826196,0.56828 1.229878,0.65185 0.677676,0.14029 1.769268,0.42094 2.4,0.65123 M 223.04001,176.48 h 1.28 m -3.68,0.32 h 0.8 m -129.600007,0.32 c -0.263418,0.22822 -0.36122,0.56121 -1.44,0.78406 -0.522627,0.10797 -1.43666,0.23387 -2.08,0.31112 -1.743223,0.20927 -3.5679,0.3473 -5.28,0.57273 -0.484834,0.0639 -1.518467,0.13147 -1.92,0.18418 -0.364273,0.0478 -0.570235,0.062 -0.96,0.0673 -0.424614,0.006 -0.697959,-0.004 -1.12,0.0463 -0.41541,0.049 -0.669898,0.10022 -1.12,0.11198 -0.927544,0.0242 -1.858731,0.10617 -2.72,0.18951 -3.455406,0.33437 -7.269786,0.79967 -10.720001,1.8974 -2.430503,0.7733 -4.889331,1.96684 -6.88,3.58963 -1.39811,1.13973 -2.574678,2.60535 -4,3.56986 -0.709058,0.47983 -1.630552,0.9101 -2.378643,0.60297 -0.697202,-0.28623 -0.548838,-0.80736 -0.778393,-1.66135 -0.06076,-0.22603 -0.173042,-0.43488 -0.202964,-0.50568 m 167.840008,-9.44 h 1.12 m -3.2,0.32 h 0.64 m -112.00001,0.16 1.6,1.44 c -0.57341,0.57342 -0.63942,0.63943 -1.12,1.12 -0.36843,-1.24971 0.008,-1.47428 0.16,-1.76 m 262.40001,-0.48 -1.76,1.44 m -152.48,-1.28 h 0.8 m -3.04,0.32 h 0.96 m -3.36,0.64 h 0.64 m -108.00001,0.16 -0.16,0.16 m 5.12,0 c 0.33148,1.15068 1.21526,2.76184 1.85667,3.84 1.02105,1.71629 2.41968,3.70969 3.73049,5.28 1.44022,1.72533 3.11115,3.42192 4.81284,4.89197 0.78965,0.68217 1.56353,1.35649 2.4,2.00655 1.29949,1.00986 2.59677,1.94459 4,2.91716 0.88154,0.611 1.88127,1.52875 2.34803,2.0379 0.14026,0.15298 0.41534,0.57177 0.74395,0.80976 0.74728,0.54121 1.12963,0.34401 1.86802,0.76951 1.87713,1.0817 3.47667,3.71323 4.64,5.60715 m 73.76001,-28.16 h 0.48 m -106.40001,0.48 -0.16,0.16 m 32.48,2.4 c 0.44774,0.0603 0.67897,0.16488 1.76,0.31988 0.93304,0.13379 1.84766,0.29627 2.72,0.41221 0.39958,0.0531 0.70259,0.0658 1.12,0.0678 1.86901,0.009 4.00986,0.16198 5.76001,-0.0678 0.45642,-0.0599 0.83389,-0.0851 1.28,-0.0926 0.82496,-0.0138 1.89488,-0.13937 2.72,-0.25174 1.21584,-0.16556 2.39348,-0.3581 3.68,-0.63986 2.89832,-0.63474 6.28532,-1.19154 8.96,-1.62853 1.18019,-0.19282 2.50818,-0.41116 3.36,-0.51938 m -59.20001,0.16 0.44,2.56 2.01358,7.84 0.58642,3.2 m 57.76001,-13.28 c 0.32232,1.17856 0.52384,1.55977 0.96011,2.88 0.4545,1.37541 1.32182,2.75608 2.07989,3.36 m 33.12,-6.24 h 1.12 m -3.2,0.48 h 0.64 m 40.32,0 c -0.81979,0.47893 -1.76199,1.03902 -2.72,1.44 m -16.16,-1.28 c -0.97393,0.78496 -2.21471,1.74584 -3.36,2.24 m -20.64,-1.92 h 0.8 m -3.04,0.64 1.44,-0.32 m 178.72,0 c -0.71882,0.56801 -1.11957,1.15211 -2.24,0.64 m -179.52,0 h 0.48 m -2.72,0.32 h 0.96 m 43.68,0.48 -0.16,0.16 m -143.200007,0 c -0.224316,0.20988 -0.350371,0.44289 -1.120244,0.86986 -0.339668,0.18838 -1.165225,0.55393 -1.599756,0.76977 -1.50918,0.74963 -3.043135,1.37027 -4.64,1.9726 -4.497949,1.69656 -9.095655,3.07681 -13.6,4.7758 -1.710757,0.64527 -3.489297,1.33127 -5.120001,2.13297 -5.275351,2.59351 -9.502895,6.32084 -13.593701,10.599 -1.775845,1.85717 -3.470347,3.81244 -5.147164,5.76 -0.767973,0.89197 -1.670927,2.02041 -2.424941,2.88 -0.550855,0.62799 -0.999346,1.04516 -1.554194,1.6 l -1.28,-0.96 m 146.720008,-30.24 0.8,-0.16 M 3.2000001,184 c 0.2744657,0.65906 0.7283905,1.44801 1.0088892,1.91926 0.1234287,0.20736 0.2224002,0.5449 0.6269135,0.79865 0.4466833,0.2802 1.684505,0.325 2.5241975,0.51975 2.9939967,0.69437 6.4337417,1.75801 9.4400007,2.61492 0.870267,0.24807 2.617264,0.73908 3.36,0.86914 0.923657,0.16174 1.235251,0.22721 1.709136,0.7052 0.23061,0.23261 0.342265,0.52753 0.358396,0.8932 0.01043,0.23646 -0.01781,0.64205 -0.244075,0.9089 -0.593657,0.70016 -0.817114,0.29235 -1.663457,0.22469 -0.827194,-0.0661 -1.47161,-0.22201 -1.875556,0.0852 -0.65649,0.49922 -0.656681,1.23763 -0.844444,1.66111 M 187.52001,184.16 c 0.56265,-0.0807 0.71732,-0.0807 1.28,0 m 117.44,0.8 2.88,-0.006 1.76,-0.15308 16.48,-0.64 18.4,0.47937 M 134.4,184.48 l 3.36,0.70617 3.36001,0.39951 1.76,0.0143 2.24,-0.16 m 39.2,-0.64 c 0.65406,-0.12185 1.07131,-0.1924 2.08,-0.32 m 30.24,0 -0.32,0.16 m 18.08,0 h 0.16 m -52.64,0.48 h 1.6 m 163.36,0 h 1.76 m -50.56,0.64 c 0.96197,-0.12158 2.33688,-0.30332 3.68,-0.31937 0.8485,-0.0101 1.11027,0.0194 2.08,-0.16063 m -124,0.32 0.64,-0.16 m 169.28,0 c 1.9209,0.25891 2.825,0.68983 3.84,1.28 l -0.8,0.64 m -176,-1.28 h 1.28 m 34.24,0 -3.84,1.92 m 77.76,-0.96 c 0.88891,-0.28178 1.91666,-0.3948 3.04,-0.54777 2.36967,-0.3227 5.85891,-0.41223 7.68,-0.41223 m -254.240008,0.16 c 0.148779,0.47264 0.347417,1.15186 0.448642,1.59926 0.06576,0.29062 0.01362,0.67293 0.433579,0.84976 0.835933,0.352 2.921202,-0.71671 3.757779,-1.00902 1.034165,-0.36135 1.406469,-0.59469 1.92,-0.96 M 174.56001,186.4 h 0.96 m 180.48,0.16 0.48,0.48 m -318.080009,-0.32 0.552344,1.6 0.247656,1.28 c 1.209173,-0.003 3.136558,-0.53029 4.000001,-0.64 m 54.400001,-2.08 c 1.141827,0 1.238887,0 2.240001,0 m 35.999996,0.48 1.28,-0.48 M 4.4800002,187.04 c -0.1224109,0.21514 -0.237464,0.41305 -0.3928394,0.64717 -0.093738,0.14125 -0.1955802,0.2715 -0.3103705,0.47309 -0.6407379,1.12523 -0.6424835,1.88705 -0.5648151,2.39974 0.019871,0.13117 0.1295224,0.34266 0.1192594,0.8 -0.00789,0.35172 -0.099924,0.6426 -0.1307407,0.8 -0.114487,0.58473 -0.1957373,1.25039 -0.3204938,1.92 M 171.04001,187.04 h 0.96 m 54.88,0.48 c 0.56355,-0.15873 0.92879,-0.27541 1.92,-0.48 m 48.16,0.32 h 1.12025 l 1.11975,-0.0272 2.08,-0.13283 1.44,-1.2e-4 2.24,-0.15988 m -61.44,0.96 c 0.88301,0.14774 1.03697,0.14774 1.92,0 m 39.04,0.48 c 1.06523,-1.2e-4 1.32498,-0.083 2.24,-0.14568 1.76625,-0.12098 5.24045,-0.33432 6.56,-0.33432 m -239.680009,0.16 c 0.431734,1.32684 0.107066,1.58865 0.995926,1.98346 0.497912,0.22117 1.134367,0.11043 1.564074,0.0694 1.187144,-0.11343 2.123855,-0.2707 2.88,-0.45283 M 136.16,188.32 c 1.86298,1.47844 4.04518,3.1441 5.92001,4.53926 0.88621,0.65947 1.34597,1.30269 2.04791,1.8626 0.40892,0.32619 0.97582,0.33054 1.47209,0.58925 1.23856,0.64571 2.39302,1.58069 3.52,2.34172 0.79732,0.53842 1.59927,1.12838 2.4,1.65211 1.26089,0.82471 2.51279,1.43078 3.51752,2.29741 0.59305,0.51152 0.96323,0.88087 1.12248,1.75765 0.86477,0.0377 1.98408,0.28945 2.88,0.77854 2.54869,1.39132 4.80033,2.8264 7.36,4.21838 1.0288,0.55949 2.98275,1.80201 3.84,2.35517 0.47386,0.30576 0.87541,0.58436 1.36714,1.01469 0.37706,0.32996 0.61145,0.42383 0.88151,0.49433 0.42428,0.11079 1.20873,0.35 1.75135,0.61852 3.50107,1.73252 7.68756,3.64647 10.88,5.51729 0.69431,0.40687 0.84343,0.5164 1.36715,1.00714 0.46609,0.43676 0.74742,0.49262 1.35296,0.59645 0.34871,0.0598 0.89549,0.15898 1.27989,0.28258 1.93271,0.62136 3.61414,1.41515 5.28,2.33914 0.57769,0.32043 1.86488,1.07582 2.56,1.34283 1.37187,0.52699 0.82674,0.17172 2.4,0.46854 1.66277,0.31367 3.62744,1.12382 5.28,1.68689 0.78492,0.26744 1.47047,0.54516 2.24,0.79939 0.93189,0.30786 1.95152,0.53481 2.88,0.80012 3.81875,1.09119 7.69982,2.17852 11.68,2.92172 1.02939,0.19223 2.00043,0.45301 3.04,0.66223 3.6951,0.74371 7.54431,1.29965 11.36,1.6689 0.87779,0.0849 2.03754,0.16799 2.88,0.27926 0.54545,0.072 0.85746,0.0591 1.44,0.13578 1.47297,0.19399 3.28639,0.2127 4.8,0.24977 0.75541,0.0185 1.11359,-0.0151 1.92,0.005 1.11252,0.0273 1.62885,0.15759 2.56,0.15765 0.68715,4e-5 1.06631,0 1.76,0 2.92248,0 6.01851,-0.12562 8.96,-0.16062 0.63359,-0.008 1.05121,-0.10744 1.6,-0.14506 0.43889,-0.0301 0.67066,0.002 1.12,-0.0286 0.40182,-0.0275 0.60592,-0.0832 0.96,-0.11866 0.2917,-0.0292 1.55379,-0.15699 1.92,-0.20789 1.74674,-0.24281 3.38441,-0.48504 5.12,-0.73582 1.87139,-0.27039 3.74891,-0.76695 5.6,-1.16332 4.11119,-0.88033 8.27141,-1.91346 12.16,-3.45617 2.64955,-1.05115 5.30289,-2.11904 7.84,-3.38434 2.46012,-1.22687 4.97529,-2.42668 7.36,-3.88923 2.14399,-1.31491 4.3517,-2.62473 6.4,-3.99026 2.21192,-1.47461 5.46475,-3.84154 7.04,-5.12 m -77.44,-14.24 c 1.28863,0.004 2.36656,0.34924 4,0.62703 2.24008,0.38096 4.46762,0.82274 6.72,1.13297 1.48307,0.20428 2.92598,0.4649 4.32,0.66086 1.65365,0.23244 3.28389,0.53147 4.96,0.62482 5.83248,0.32485 11.75271,1.01196 17.6,1.26803 1.47227,0.0645 3.19047,0.006 4.64,0.006 0.75561,0 1.11338,0 1.92,0 1.74406,0 4.22227,0 5.92,0 0.6051,0 0.95912,0.007 1.6,-6.2e-4 0.59715,-0.007 0.92072,-0.0828 1.44,-0.13221 0.78254,-0.0745 2.04795,-0.0272 2.88,-0.0272 0.80832,0 1.37059,0.015 2.08,-0.002 0.63281,-0.0155 0.92305,-0.12172 1.6,-0.15137 0.76479,-0.0335 1.0816,0.008 1.76,-0.009 0.53373,-0.0131 0.77227,-0.0822 1.28,-0.13049 0.53617,-0.051 0.81174,-0.0222 1.28,-0.0278 0.45846,-0.005 0.70774,-0.0374 1.12,-0.0915 0.42977,-0.0564 0.69645,-0.0577 1.12,-0.0701 3.08279,-0.0904 6.49596,-0.69322 9.76,-1.23826 4.69658,-0.78424 9.39608,-2.1434 13.92,-3.61234 2.03332,-0.66024 4.07289,-1.3649 6.08,-2.1194 0.44492,-0.16724 0.84438,-0.30865 1.28,-0.48443 0.61735,-0.24912 1.0818,-0.44787 1.76,-0.65803 1.82383,-0.56511 3.60324,-1.22248 5.44,-1.86037 2.23258,-0.77535 4.3036,-1.74154 6.56,-2.50494 m -154.56,0.16 h 0.96 m 9.6,0 h 0.8 m 47.04,0.64 c 1.06525,-1.2e-4 1.32498,-0.083 2.24,-0.14568 1.8309,-0.12541 4.11334,-0.17432 5.6,-0.17432 m -62.88,0.16 h 0.32 m 5.12,0 h 0.8 m -155.040008,0.16 -0.857779,1.44 0.217779,1.6 m 151.040008,-2.72 h 2.24 m 46.56,0 h 3.36 m -219.200009,0.64 c -1.336504,0.88215 -2.729018,0.7099 -4.64,0.79371 -0.57916,0.0254 -0.888274,-0.0131 -1.44,0.052 -0.593091,0.07 -1.00833,0.11336 -1.6,0.11432 -2.732378,0.004 -3.482041,-0.0731 -4.32,0.48 M 3.6800001,191.04 c 0.5894471,-0.2625 1.1100483,-0.58324 2.0800001,-0.63297 0.5101917,-0.0262 0.9553528,0.0305 1.4400001,0.1216 1.438385,0.27053 3.1209367,0.78153 4.4799997,1.08346 0.817647,0.18164 1.649305,0.53973 2.4,0.79445 0.438133,0.14868 0.806199,0.17289 1.120001,0.2142 1.292605,0.17014 2.157224,0.27606 3.04,0.81926 m 16.64,2.4 c 0.201048,-0.77676 0.304685,-1.34848 0.43605,-1.75926 0.063,-0.19701 -0.01784,-0.4405 0.445554,-0.81062 0.250283,-0.1999 1.056265,-0.2933 1.358396,-0.31406 0.43501,-0.0299 1.415613,-0.14981 1.92,-0.22446 2.168838,-0.32101 4.552754,-0.64572 6.720001,-1.27951 1.555078,-0.45476 2.811714,-0.94846 4,-1.05209 m 169.600008,0 h 0.48 m 2.24,0 c 0.89832,0.16024 1.72269,0.68885 3.04,1.7042 1.11209,0.85717 2.05476,1.75273 3.36,2.39604 1.02568,0.50552 1.88209,0.67906 2.88,0.69976 m -53.12,-2.88 c 1.06045,-0.59402 1.91654,-0.48 3.2,-0.48 m 4.96,0.32 c 0.70525,0.2027 1.45871,1.55838 2.56,2.28754 1.06566,0.70559 2.40914,0.71104 3.52,0.59246 m 39.36,-2.4 c 1.00596,-0.10637 2.60607,-0.0811 4,0.0143 0.98455,0.0674 1.25582,0.14568 2.4,0.14568 m -215.840009,3.04 c 0.129431,-0.69676 0.132905,-1.04523 0.228764,-1.43062 0.02618,-0.10526 0.0053,-0.26793 0.320618,-0.48495 0.211482,-0.14554 0.510706,-0.15125 0.573086,-0.15517 0.419236,-0.0264 0.684942,-0.0552 1.597532,-0.14209 1.266738,-0.12057 3.262629,-0.1866 4.48,-0.18717 0.480945,-2.1e-4 0.787217,0.0354 1.28,-0.005 0.556453,-0.0455 0.931543,-0.14121 1.44,-0.15494 1.618438,-0.0437 2.277017,-0.33268 3.2,0.15988 m 194.880009,-0.32 -0.96,0.64 m -207.360009,-0.48 0.48,0.32 m 174.880009,-0.32 0.8,0.48 m 41.12,-0.48 h 1.44 m -209.760009,0.48 c -0.215237,0.4283 -0.182217,0.68457 -0.8,2.08 m 211.680009,-2.08 h 1.6 m -33.6,0.48 0.32,-0.16 m 33.92,0 c 0.74797,0.0154 3.13855,0.40027 4.48,0.49432 0.91498,0.0641 1.17478,0.14556 2.24,0.14568 M 40.800001,194.4 v 0.16 M 101.6,194.4 c -0.21075,0.22213 -0.32664,0.36129 -1.17765,1.44 -0.39221,0.49715 -1.277884,1.52324 -1.741848,2.08 -1.480645,1.77678 -2.881231,3.50731 -4.311983,5.28 -1.537061,1.90442 -3.167686,3.94098 -4.606787,5.92 -0.442393,0.60836 -0.857637,1.16754 -1.301973,1.76 -1.510479,2.01397 -3.057305,4.16877 -4.50457,6.24 -0.347979,0.49801 -0.620342,0.92582 -0.970245,1.44 -0.596904,0.87715 -1.135044,1.62516 -1.758276,2.56 -0.853169,1.27977 -1.730879,2.60406 -2.515181,3.84 -0.316606,0.49893 -0.611299,0.92475 -0.950991,1.44 -6.671758,10.11986 -12.621651,20.68586 -18.652594,31.36 -1.740581,3.08065 -3.652749,6.13069 -5.227407,9.28 -0.417251,0.83449 -0.914849,1.99498 -1.031851,2.88 -0.111562,0.84387 0.218765,0.90188 4.94e-4,1.5936 -0.205669,0.65175 -0.83545,0.90148 -1.489136,1.38714 -0.545586,0.40536 -1.879854,1.42159 -2.4,1.82963 -0.330357,0.25916 -0.690069,0.42799 -1.053579,0.68963 -0.557852,0.40153 -0.676622,1.00336 -1.352842,1.69766 -0.730259,0.7498 -1.325362,1.02215 -2.032095,1.59457 -0.403418,0.32676 -0.645357,0.73846 -1.010127,1.12789 -0.88668,0.94666 -2.078154,1.96855 -3.031358,2.87348 -0.593969,0.56386 -1.156606,0.78636 -1.650617,1.25492 -0.565635,0.53648 -0.975093,1.13136 -1.709383,1.78345 -0.589126,0.52319 -1.165852,1.02346 -1.76,1.50975 -0.420923,0.34453 -0.868481,0.67238 -1.279753,1.00471 -0.561638,0.45385 -1.176219,0.82728 -0.912591,1.80494 0.313528,1.16269 1.640899,1.2459 2.352344,0.82406 0.427381,-0.2534 1.041516,-0.72539 1.44,-0.76185 0.73791,-0.0675 0.934295,0.41912 1.28,0.74642 M 193.76001,194.72 h 0.48 m 13.28,0.32 1.28,-0.32 m -64.8,0.16 c -0.12333,0.21063 -0.19304,0.31729 -0.46593,0.96074 -0.33476,0.78934 -1.77306,3.49346 -2.14457,4.47926 -0.23384,0.62049 -0.40226,1.55358 -0.72605,2.05283 -0.33924,0.52309 -0.68023,0.74549 -0.92716,1.14952 -0.51596,0.84421 -1.28264,2.55486 -1.49001,3.35765 -0.30984,1.19953 -0.47589,2.40416 -0.70925,3.19926 -0.0717,0.24443 -0.14281,0.63269 -0.60012,0.91617 -0.29784,0.18463 -0.62654,0.24592 -0.93692,0.32926 -0.65914,0.17699 -1.26941,0.59361 -1.76,0.6016 -1.46245,0.0238 -1.21326,-0.28109 -3.68,-1.31049 -1.17052,-0.48847 -1.53059,-0.77426 -2.14333,-0.35691 -0.38272,0.26068 -0.1572,1.20308 -0.0752,1.74111 0.0985,0.64625 0.869,3.02473 1.14296,3.51703 0.37513,0.67416 0.82729,0.80643 1.39555,1.12297 -0.17751,0.64592 -0.18132,0.91668 0.19469,2.08 0.416,1.28699 1.81787,4.01555 2.49026,5.44 0.83264,1.76397 1.82025,3.8094 2.71555,5.6 0.4389,0.87779 0.83426,1.66793 1.28,2.56 3.7429,7.49061 7.21716,15.07631 10.95901,22.56 3.56147,7.12293 7.12693,14.12953 11.1926,20.96 2.72559,4.5791 5.22061,9.19899 8.2695,13.6 0.55025,0.7943 1.19402,1.76668 1.93902,2.33297 0.49359,0.3752 1.31014,0.625 1.91938,0.47123 0.29808,-0.0752 0.44095,-0.15916 0.79988,-0.28396 0.39152,-0.13612 0.72176,-0.19496 0.98517,-0.50901 0.3418,-0.40748 0.45032,-0.87744 0.45026,-1.69123 -4e-5,-0.49644 -0.0882,-0.90543 -0.23014,-1.28 -0.21271,-0.56123 -0.77961,-1.62984 -1.08469,-2.24 -2.11072,-4.22144 -4.5148,-8.38199 -6.96851,-12.48 -5.22566,-8.72754 -10.4146,-17.30562 -15.77975,-25.92 -1.38579,-2.22506 -2.77702,-4.47465 -4.1242,-6.72 -0.98739,-1.64568 -1.91918,-3.2173 -2.8805,-4.8 -1.1351,-1.86883 -2.44229,-3.68676 -3.50962,-5.6 -0.32833,-0.58855 -0.59377,-1.15082 -0.8984,-1.76 -0.3345,-0.6689 -0.67121,-1.25353 -1.00445,-1.92 -1.22644,-2.45289 -3.14125,-6.73299 -3.83506,-8.8 -0.36552,-1.08898 -0.10188,-1.15801 -0.96876,-1.50346 -0.29605,-0.11796 -0.77492,-0.0958 -1.10729,-0.0965 -0.3522,-7.4e-4 -0.61311,0 -0.80395,0 m 120.48001,-21.6 c 1.00797,0.003 1.57387,0.15404 2.88,0.32 M 104.48,195.52 c -0.22686,0.5849 -0.0464,0.86971 -0.91184,2.06568 -0.66419,0.91786 -2.64718,2.40583 -3.55384,3.37444 -0.296816,0.31711 -0.53915,0.62576 -0.841475,0.95988 -0.427041,0.47195 -0.778213,0.78582 -1.238525,1.28 -0.31834,0.34176 -0.531436,0.61674 -0.841475,0.96 -0.326035,0.36098 -0.58792,0.60817 -0.905683,0.96 -2.325127,2.57443 -4.590274,5.39721 -6.679747,8.32 -2.771562,3.87692 -5.17498,8.05414 -7.22791,12.16 -0.698101,1.39621 -1.330947,2.52684 -1.998516,3.84 -0.759277,1.4936 -1.580801,3.14834 -2.321357,4.64 -0.27271,0.5493 -0.472788,1.04199 -0.729014,1.6 -0.26459,0.57625 -0.517852,1.05547 -0.790122,1.6 -0.510547,1.0211 -1.082656,2.16531 -1.6,3.2 -2.568716,5.13742 -5.389356,10.46971 -7.920987,15.52 -2.437373,4.86227 -5.601772,9.84961 -8.945928,14.08 -0.376172,0.47586 -1.108115,1.37799 -1.415801,1.75988 -0.29372,0.36456 -0.494428,0.68286 -1.0379,0.95567 -1.065752,0.53502 -1.59606,-0.37192 -2.399878,-0.79555 m 152.160008,-76.16 0.64,-0.16 m 27.2,0.16 c 0.52142,-0.10209 0.59859,-0.10209 1.12,0 m 21.92,-0.16 h 2.4 m -55.04,0.48 0.64,-0.16 m 30.88,0.16 h 1.12 m 24.32,-0.16 c 1.27217,0.18166 1.13762,0.13557 2.4,0 m 1.44,0.48 h 0.8 m -27.52,0.32 h 0.96 m 29.12,0 h 1.92 m -153.44001,0.48 0.64,-0.16 m 33.44001,4.32 c 0,1.25084 0.12239,1.84498 -0.0149,3.52 -0.0678,0.82729 -0.31224,1.54947 -0.96629,2.2232 -0.62741,0.64629 -1.02181,0.78399 -1.73876,0.80754 -0.92555,0.0304 -2.22559,-0.45931 -3.04,-1.00828 -2.39243,-1.61261 -2.83204,-3.23984 -3.84001,-4.42246 m -14.4,-0.96 v 0.34543 c 0,1.50438 -0.23827,1.79594 0.0503,3.01457 0.18277,0.77199 0.60173,1.0267 0.77864,1.76 0.10264,0.42543 0.20045,0.98117 0.27272,1.28 0.23012,0.95162 0.44312,1.39639 0.97839,2.08 m -10.24,-6.72 0.48,0.48 m 37.60001,-0.48 c -0.1904,0.23832 -0.40411,0.35445 -0.63322,1.12026 -0.22403,0.74884 -1.3522,3.39302 -1.7179,4.31974 -0.21728,0.55067 -0.73002,1.85192 -1.23136,2.32026 -0.66578,0.62197 -0.95381,0.52755 -1.69752,1.1122 -0.67767,0.53274 -1.7266,1.32639 -2.56,1.83778 -1.57743,0.96793 -3.69366,2.1275 -5.6,2.56976 m 115.84,-13.28 h 0.48 M 120.96,210.56 c 1.6361,-0.47439 2.92831,-1.58348 3.42248,-2.4 0.14805,-0.24465 0.38849,-0.95098 0.63024,-1.59937 0.29567,-0.79301 0.78851,-0.97243 1.06728,-1.12063 m -7.2,5.12 c -0.44339,0.4943 -0.56183,0.6093 -1.14715,1.92 -0.20189,0.45209 -0.51024,0.98281 -0.77285,1.44 -0.52139,0.90772 -1.07056,1.81656 -1.63074,2.72 -2.09616,3.38065 -4.22981,6.62483 -6.42259,9.92 -0.45751,0.68752 -0.82834,1.24375 -1.28,1.92 -2.77509,4.15504 -5.89083,8.24518 -8.578151,12.48 -5.378643,8.47594 -10.226524,17.25172 -14.688887,26.24 -2.162588,4.35598 -4.255269,8.81137 -5.799629,13.44 -0.552627,1.65629 -1.647798,3.78299 -1.108516,5.44 0.212485,0.65289 1.131084,1.39506 1.748516,1.53692 0.855014,0.19644 0.850913,0.0631 1.76,0.0631 M 137.28,211.04 c 0.17973,0.21252 0.42427,0.29584 0.59049,0.96074 0.0571,0.22854 0.0723,0.64506 0.14457,0.95926 0.32103,1.39492 0.35125,2.98828 1.40791,4.31766 0.36068,0.45375 0.78071,0.80086 1.37703,1.19863 0.76712,0.5117 1.86726,1.01154 2.72001,1.04137 0.50286,0.0176 1.17708,0.0338 1.50974,0.39172 0.36598,0.39379 0.31761,0.65277 0.36791,0.89074 0.0952,0.45019 0.36397,1.3714 0.71444,2.23988 0.95347,2.36268 2.38045,4.65383 4.12803,6.1942 0.79143,0.6976 1.51373,1.22443 2.55988,1.69443 0.52763,0.23707 0.89716,0.37247 1.44,0.47026 0.65999,0.11892 1.02985,0.26808 1.76,0.27457 1.4153,0.0126 2.8421,-0.6332 4.16,-1.18149 0.64624,-0.26884 1.38651,-0.61209 2.08,-0.92531 0.32913,-0.14865 0.91017,-0.28783 1.19851,-0.49506 0.46463,-0.33394 0.48483,-0.71375 0.73877,-1.07172 0.26586,-0.37476 0.84885,-1.00398 1.249,-1.43988 0.41053,-0.44719 0.80948,-0.94283 1.18903,-1.44 1.69012,-2.21383 3.02486,-4.90863 3.83,-7.52 0.32029,-1.03887 0.69824,-2.91947 0.78123,-3.68 0.13281,-1.21691 0.33859,-1.37933 0.61346,-1.76 m -19.2,-0.8 c 0.0853,0.15994 0.2015,0.29287 0.2479,0.50568 0.0287,0.13176 0.059,0.24872 0.0572,0.45506 -0.0109,1.21891 -0.73346,3.25248 -1.75147,4.31914 -1.20174,1.25918 -3.22842,2.14465 -4.63358,2.56592 -0.68589,0.20563 -1.04348,0.38797 -1.44,0.6342 M 134.4,212.16 c -0.0195,0.45346 -0.0632,1.28137 -0.17505,2.56 -0.0858,0.98121 -0.84898,1.41246 -1.42495,1.92 m -88.319998,-1.6 c 0,0.74057 0,0.99881 0,1.44 -1.094419,0.14203 -1.741636,0.43045 -3.680001,1.25606 -0.528129,0.22492 -1.256025,0.57312 -1.76,0.768 -0.26843,0.10383 -0.637861,0.21786 -0.94321,0.11248 -0.639553,-0.2207 -0.756028,-0.81904 -1.039136,-1.17654 -0.389827,-0.49224 -1.633823,-1.58599 -2.177654,-2.24 M 134.08,215.84 c 0.3014,0.30887 0.70827,0.39906 1.13605,1.6 0.26427,0.7419 1.23571,3.10313 1.7089,4 1.3313,2.52342 2.77913,5.00086 4.38617,7.36 1.02975,1.51168 2.04856,2.57793 3.00889,3.68 m -99.840008,-16 c 0.871635,1.00535 0.863667,1.505 0.96,1.92 m -16.640001,-0.16 c 0.53989,0.5384 1.286226,1.16994 1.675308,1.62715 0.293418,0.3448 0.76905,0.77109 0.618149,1.39162 -0.07945,0.32672 -0.619343,0.59365 -0.853704,0.70764 -0.683703,0.33258 -1.917849,0.8375 -2.719753,1.12285 -0.597229,0.21252 -1.528899,0.406 -1.92,0.57777 -0.618303,0.2716 -0.598738,0.43893 -1.44,0.70643 -0.6194,0.19695 -2.608919,1.0343 -3.04,1.2168 -0.478784,0.20269 -0.731426,0.26986 -1.28,0.67689 -0.433871,0.32195 -1.381508,0.76459 -2.08,1.02496 -1.448067,0.53977 -4.300149,1.46195 -6.080001,1.50555 -1.411147,0.0346 -3.9984452,0.17066 -5.2799998,0.1616 -0.7606201,-0.005 -1.8601438,-0.12465 -2.4000001,-0.18715 -0.1759903,-0.0204 -0.6212756,-0.0757 -0.9161728,-0.28223 -0.4515341,-0.31617 -0.497821,-0.62007 -0.6325926,-0.81062 C 2.1806358,227.29666 1.6715705,226.7211 1.12,226.24 m 36.640001,-7.52 c -1.386213,1.20477 -4.908171,2.13797 -6.24,2.56 m 13.920001,-2.56 c 0.507314,0.62902 0.667583,1.00797 0.96,2.56 m 140.320008,-1.44 c -0.3561,0.421 -0.61401,0.53465 -0.81211,2.56 -0.12881,1.31686 -0.54338,2.94358 -1.10963,4.32 -1.26016,3.06311 -2.89342,6.03371 -4.90246,8.64 -0.91164,1.18266 -2.21207,2.64524 -3.16371,3.66569 -0.65032,0.69732 -1.24549,1.32833 -2.08,2.00654 -0.52559,0.42715 -1.23071,0.75777 -1.85209,1.08222 -1.2761,0.66627 -3.19444,1.09133 -4.32,1.24555 -0.83106,0.11387 -1.49336,0.11391 -2.0768,0.19654 -0.0719,0.0102 -0.37758,0.071 -0.53223,0.24223 -0.24222,0.26826 -0.15371,0.4134 -0.14072,0.52826 0.0316,0.2793 -0.0212,0.65871 0.5616,1.91297 0.26574,0.57194 0.70127,1.20947 1.06815,1.76 1.83363,2.75153 4.203,6.06188 6.21283,7.92963 0.80256,0.74584 1.33267,1.22061 2.42717,1.65531 0.28048,0.11141 1.6247,0.39198 1.8858,0.591 0.58279,0.4442 0.53467,0.71613 0.59925,0.86418 0.2084,0.47771 -0.0504,0.69539 0.89963,2.39988 0.41879,0.75141 0.8918,1.50977 1.34754,2.24 1.50032,2.40399 3.15287,4.78031 5.03407,6.49211 0.76671,0.69766 1.62437,1.49285 2.39371,1.98492 0.78203,0.5002 1.58244,0.57379 2.71925,1.05323 0.79432,0.33498 0.8102,0.67461 0.91618,0.87048 0.22254,0.41131 -0.0241,0.69383 0.87728,2.23926 0.59574,1.02141 1.21074,1.94453 1.92481,2.88 1.10205,1.44377 2.21412,2.73164 3.48248,4 0.65791,0.65791 1.39277,1.3941 2.08,1.98778 0.69492,0.60031 1.2989,1.1905 2.08,1.72828 0.87779,0.60433 2.38724,1.13132 3.2,1.24394 0.2916,0.0404 1.00486,0.20633 1.44,0.0617 0.88713,-0.29478 0.99265,-0.65783 1.6,-1.18172 0.58304,-0.50293 1.55209,-1.33342 2.39988,-2.10715 0.31463,-0.28715 0.80307,-0.7255 0.88629,-1.09285 0.12775,-0.56392 -0.23453,-0.76881 -0.72863,-1.28 -1.64938,-1.70644 -3.81346,-3.89211 -5.44383,-5.6 -1.44594,-1.51471 -2.90514,-3.18609 -4.26977,-4.8 -0.5832,-0.68972 -1.2591,-1.6534 -1.60383,-2.07457 -0.24984,-0.30525 -0.3058,-0.54369 -0.84246,-0.58086 -0.28957,-0.0201 -0.94773,0.36225 -1.27765,0.57555 -0.60385,0.39043 -1.51284,0.97668 -2.08,1.30025 -1.63631,0.93358 -3.19418,1.4308 -4.16,1.73963 M 22.080001,220 l 2.233579,2.01211 1.286421,1.50789 m 13.76,-1.92 0.51889,1.12024 0.44111,2.07976 m -23.52,-2.24 c 0.486295,0.64526 1.116261,1.36203 1.714321,2.08 0.748295,0.89832 0.963252,1.20535 1.325679,1.6 M 196.96001,224 c 0.12566,0.46039 0.24763,0.78434 0.37111,1.12024 0.10076,0.27414 0.0487,0.52607 0.55975,1.26545 0.26429,0.38236 0.89148,0.90166 1.30914,1.26951 1.29396,1.13961 2.34787,1.97144 3.06494,2.90492 0.27594,0.35922 1.15695,1.64172 1.17914,2.55988 0.0385,1.59254 -0.84867,3.08957 -1.50582,4.32 -1.1767,2.20324 -3.38844,4.98192 -5.34395,7.2 -2.34632,2.66141 -5.16785,5.11285 -7.95431,7.36 -0.5094,0.4108 -1.1335,0.90268 -1.59741,1.3258 -0.21267,0.19397 -0.62697,0.58666 -0.67986,0.91432 -0.0909,0.56293 0.1666,0.68568 0.61195,1.27988 0.44633,0.59551 0.82733,0.99258 1.33235,1.6 1.05734,1.27174 1.81672,2.3524 2.82494,3.52 1.37398,1.59119 3.33252,3.58449 4.86803,5.12 0.54088,0.54088 1.41351,1.42473 1.91765,1.90569 0.7485,0.7141 0.66004,1.07236 1.44864,1.05554 0.2588,-0.006 0.7466,-0.35963 0.95371,-0.52431 0.69992,-0.55657 1.52467,-1.2302 2.24,-1.79743 1.9556,-1.55068 3.96404,-3.25785 5.76,-4.9538 0.49592,-0.46831 0.82804,-0.71901 1.28,-1.14 0.69197,-0.64459 1.86594,-1.83661 2.55765,-2.54569 0.38948,-0.39926 0.65995,-0.71207 1.00172,-1.12 1.83102,-2.18539 3.5691,-4.41236 4.76371,-6.88 0.41198,-0.85097 1.15791,-2.40459 1.09506,-3.36 -0.0865,-1.31527 -0.6898,-1.80222 -1.5806,-2.72 -2.65846,-2.73898 -6.07487,-5.57336 -9.11754,-8.33197 -0.73891,-0.66992 -2.04875,-1.61756 -2.56,-1.83371 -0.8951,-0.37842 -0.9326,-0.50717 -2.08,-0.39432 M 27.520001,228.8 c -0.22272,-0.79254 -0.311057,-1.22402 -0.356296,-1.6 -0.02244,-0.18644 -0.154688,-0.34805 0.05506,-0.78271 0.148657,-0.30807 0.739504,-0.63559 1.101233,-0.78409 1.410313,-0.5789 2.179717,-0.61785 2.88,-0.6732 m -11.52,1.44 c 0.06931,0.0819 0.417342,0.48194 0.61358,0.95766 0.191671,0.46465 0.158928,0.7309 0.829506,0.77308 0.554143,0.0349 1.171176,-0.28714 1.596914,-0.4432 1.761706,-0.64582 3.046655,-1.04762 4.32,-1.28754 m -6.56,1.76 -0.345432,0.2784 c -0.877974,0.53559 -2.07516,0.65215 -3.334568,1.6416 l 0.32,1.28 M 2.8800001,228.48 c -0.3998438,0.34199 -0.9119649,0.61344 -1.432963,1.29494 C 0.70227221,230.74914 0.69498416,231.30078 0.16000001,232 M 21.280001,228.48 c 0.13927,0.39356 0.223821,0.66277 0.16,1.76 m 142.240009,-1.12 c 0.78703,0.90961 1.43263,2.04113 2.77371,3.84 0.62117,0.83322 1.02734,1.51451 1.87258,2.4 1.27019,1.3307 3.25298,3.25356 4.47371,4.32 M 13.44,232.32 c 9.72e-4,-0.275 -0.160653,-0.7106 0.164445,-1.21754 0.23488,-0.36625 0.944207,-0.63554 1.435556,-0.75418 0.81028,-0.19566 1.380278,-0.23828 1.76,-0.26828 M 3.5200001,239.04 C 2.8658,238.21221 2.2659327,237.32563 1.9828396,236.32 1.9047115,236.04246 1.7818885,235.64813 1.770247,235.2 c -0.012634,-0.48635 0.1107798,-0.91578 0.2461727,-1.27988 0.2948884,-0.79301 1.1998994,-1.39176 2.1435804,-1.55432 0.6306525,-0.10863 1.9937361,-0.18726 2.5600001,-0.21209 0.8165089,-0.0358 1.8174427,-0.20398 2.7200001,-0.38556 C 10.241936,231.6068 11.211722,231.33438 12,231.22098 c 0.572262,-0.0823 0.95216,-0.14246 1.44,-0.18098 m 142.72001,0.8 c 0.0633,0.77453 -0.0142,0.9157 0.5537,2.4 0.35658,0.93203 1.54075,3.04082 2.05555,3.84 0.55688,0.86449 1.16233,1.82938 1.87075,2.53285 0.87339,0.86727 1.53503,1.44309 2.56,2.03295 0.64914,0.37358 1.58459,0.75207 2.4,0.8742 M 0,233.44 l 1.4400001,1.44 m 173.2800099,6.4 c 0.17238,0.20274 0.33648,0.35037 0.73048,0.96074 0.29194,0.45225 0.97647,1.50516 1.341,2.07926 1.33402,2.10098 2.91691,4.04494 4.66283,5.92 1.12149,1.20444 2.03287,2.07151 3.02569,2.88 m 34.72,-6.56 c 1.18611,0.10344 1.30232,-0.0496 2.4,0.72211 0.53392,0.37537 1.18179,1.02279 1.76,1.54504 1.58109,1.42809 4.13674,3.66777 5.6,5.0952 1.26551,1.23449 2.41584,2.35503 2.9616,3.35765 0.0972,0.17848 0.37812,0.73455 0.74852,1.0384 0.45869,0.37629 0.7099,0.37496 0.92988,0.45605 0.40551,0.14946 1.30982,0.54489 2.08,1.21813 1.46828,1.28353 4.68244,4.01166 5.87197,5.30174 0.81617,0.88517 1.2802,1.50865 1.70076,2.22556 0.0888,0.15127 0.28819,0.57633 0.62307,0.82518 0.47453,0.3526 0.72312,0.33064 0.9242,0.40223 0.38789,0.13808 0.99269,0.39773 1.76,1.02631 1.78488,1.46214 3.60678,3.11375 5.12,4.6264 0.58662,0.58641 1.21521,1.18668 1.74555,1.76 0.74621,0.80668 1.29728,1.52977 1.41222,2.72 0.046,0.47586 -0.13601,1.05699 -0.18554,1.28 -0.21905,0.98629 -0.39432,1.94285 -0.90038,3.2 -1.21722,3.02391 -3.52767,6.01934 -5.81976,8.96 -2.64287,3.39071 -5.53694,6.36899 -8.23924,9.6 -0.50195,0.60016 -1.09486,1.19801 -1.53605,1.76 -0.14887,0.18963 -0.40633,0.51371 -0.46137,0.8 -0.16014,0.83289 0.48248,1.06594 1.34457,1.75988 3.79742,3.05676 7.73826,6.20461 11.84,8.80012 m -72.8,-57.12 c 1.04658,-0.2948 2.46617,-0.65965 4.16,-1.4668 1.36154,-0.64882 2.42468,-1.49535 3.84,-2.0532 m 46.4,4 c -0.15153,0.28387 -0.23893,0.47432 -0.34877,1.28 -0.0619,0.45379 -0.26053,1.22197 -0.41049,1.76 -0.60793,2.18098 -1.79982,4.25301 -3.43852,6.4 -0.91089,1.19344 -1.54445,1.98803 -2.43246,3.04 -1.0199,1.20822 -2.32332,2.54096 -3.45605,3.67371 -1.62889,1.62891 -3.45217,3.22617 -5.11371,4.80629 -1.12543,1.07029 -2.67022,2.35699 -3.68,3.35988 -0.54877,0.545 -0.7302,0.87598 -1.6,1.12012 m 31.52,-15.36 c -0.0902,0.66985 -0.21938,1.29883 -0.48186,2.24 -1.03158,3.69903 -4.459,8.1443 -7.40383,11.52 -0.6574,0.7536 -1.5224,1.69028 -2.18011,2.4 -0.54428,0.58735 -0.84737,0.98522 -1.45483,1.6 -0.72435,0.73309 -1.24724,1.21383 -1.90506,1.92 -0.4965,0.53301 -0.75855,0.89957 -1.29666,1.43766 -0.52691,0.52691 -0.92689,0.82088 -1.43765,1.29666 -0.73291,0.68271 -1.56885,1.55867 -2.24,2.22556 -0.42207,0.41938 -0.64125,0.61911 -1.09938,1.00655 -0.30492,0.25787 -0.49597,0.4706 -0.72705,0.7622 -0.26279,0.33168 -0.60842,0.78729 -0.85049,1.11137 -1.17541,1.57358 -2.05132,2.00352 -2.1232,3.68 -0.0175,0.40877 0.17031,0.75194 0.2616,0.96 0.32076,0.73098 0.64002,1.29067 1.26555,2.24 1.61967,2.45817 4.60971,5.48145 7.43297,7.23074 1.69203,1.04838 2.28338,0.98577 2.88,1.01989 0.1643,0.009 0.55238,0.0579 1.11123,-0.0673 0.49373,-0.1106 0.67807,-0.51521 0.74668,-0.67099 0.26916,-0.61114 0.74193,-1.93018 1.27418,-2.87235 0.34385,-0.60867 1.31752,-2.05545 1.28334,-2.55988 -0.0476,-0.70315 -0.48692,-0.8552 -1.37543,-1.54418 -1.22836,-0.95252 -2.62713,-2.02965 -3.84,-2.99988 -1.2382,-0.99051 -2.47305,-1.99035 -3.68,-3.01952 -0.67623,-0.57662 -1.99512,-1.77509 -2.55926,-2.26369 -0.53937,-0.46714 -0.73092,-0.66777 -0.96074,-0.89285 m -24.96,-25.12 -0.16,0.16 m 30.4,1.44 c 0.62504,0.005 2.44988,0.13559 3.52,0.8 m -187.200008,0 1.76,3.68 m 6.24,-2.08 c -0.704712,1.41658 -3.51773,4.12266 -5.352842,6.02 -0.616538,0.63746 -1.020293,0.84766 -1.687036,1.49778 -0.658365,0.64195 -0.935606,0.95773 -1.522344,1.57111 -0.635977,0.66484 -1.180254,0.98017 -1.837778,1.63111 -0.747374,0.73988 -1.210704,1.07711 -1.905679,1.76334 -0.614217,0.60651 -0.85938,0.78547 -1.454815,1.2516 -1.177075,0.92147 -2.177551,2.05938 -2.719507,2.90506 m 5.120001,-13.28 c 0.960253,1.0425 1.46851,1.68514 1.92,2.24 m 210.720008,0.16 c 0.97973,0.008 1.246,-0.35301 2.72,0.80877 1.6449,1.29651 3.92768,3.28119 5.28,4.63123 0.63195,0.6309 1.26754,1.2302 1.92,1.80569 0.61621,0.54349 1.45365,1.35876 1.8448,1.87431 0.18215,0.24008 0.4717,0.64192 0.62729,1.12 0.21426,0.6584 -0.008,1.48664 -0.0931,2.08 -0.36646,2.54899 -1.63322,5.0993 -3.34076,8 -0.67195,1.14149 -1.18621,2.20895 -1.88381,3.2 -0.89683,1.2741 -1.89566,2.51285 -2.80902,3.84 -0.67291,0.97778 -1.37951,1.89158 -2.07024,2.88 -0.81082,1.16028 -1.70953,2.54879 -2.47445,3.68 -0.67898,1.00414 -1.24674,1.94377 -1.90766,3.01938 -0.33878,0.55138 -0.72259,0.74332 -1.00617,1.30359 -0.54638,1.07949 -1.49002,3.54555 -1.67556,4.31691 -0.0575,0.23899 -0.24412,0.85377 -0.60778,1.10581 -0.40974,0.28396 -0.63634,0.26408 -0.76369,0.29591 -0.39556,0.0989 -0.86597,0.28817 -1.91988,-0.009 -1.57529,-0.44457 -4.43293,-2.60129 -5.76,-3.61383 -1.65252,-1.26086 -3.33817,-2.80783 -4.68569,-4.33852 -1.48503,-1.68687 -2.10142,-2.94711 -2.67431,-3.84 M 48.480002,279.2 l 0.862344,0.82789 1.697656,1.89211 m -14.400001,-0.48 2.08,2.4 m 200.800009,-2.4 c 2.03363,2.4e-4 2.36543,-0.17625 4,0.8 m -198.400008,0.32 c 0.353789,0.44612 0.600512,0.83082 1.44,1.92 m 166.080008,-0.64 c 0.13801,0.20004 0.18426,0.39418 0.68222,0.93358 0.51006,0.5525 1.57209,1.47181 2.19778,2.01431 1.53045,1.32703 3.13906,2.76828 4.64,4.11914 0.65179,0.58662 2.02801,1.84184 2.55926,2.37223 0.59294,0.59199 0.74726,0.74727 0.96074,0.96074 m -182.720009,-7.84 1.760001,2.08 m 39.360001,-1.44 c 0.503281,0.43637 0.976865,0.88619 2.56,1.12 m -52.960002,-0.64 c 0.38512,0.82205 0.683091,1.36557 1.12,1.6 m 46.240002,-1.44 c 0.09791,0.52926 0.166274,0.82137 0.06778,1.6 -0.180586,1.4276 -0.256069,4.94203 -0.0221,6.56 0.0829,0.57322 0.113184,0.85194 0.114317,1.44 0.0011,0.56498 0,1.20047 0,1.76 0,0.37047 0.008,0.69793 -0.0023,1.12 -0.0089,0.3617 -0.04507,0.61969 -0.08976,0.96 -0.07368,0.56119 -0.06624,1.20504 -0.06802,1.76 -0.0013,0.41789 -0.02408,0.77469 -0.02408,1.28 0,0.44498 0.02105,0.72393 0.02371,1.12 0.0045,0.67406 -0.158067,2.15682 -0.159507,2.88 -0.0017,0.86891 -0.02117,1.12709 -0.200742,1.92 -0.09024,0.39848 -0.114038,0.74524 -0.118643,1.12 -0.0092,0.75102 -0.105693,2.30246 -0.174937,3.04 -0.06082,0.64778 -0.207631,0.79992 -0.368271,1.44 -0.144219,0.57465 -0.08322,1.16582 -0.12457,1.6 -0.03515,0.3691 -0.131953,1.31629 -0.132837,1.76 -0.0024,1.20934 -0.108648,1.74309 -0.02691,2.07371 0.02238,0.0905 0.125717,0.29082 0.380493,0.5784 0.668794,0.75483 0.73168,0.86465 0.763828,1.50789 0.01969,0.39395 0.06765,0.94313 -0.08037,1.44 -0.303833,1.01992 -1.516416,3.57504 -1.848643,4.8 -0.170053,0.62703 -0.141592,0.95227 -0.148393,1.28 0.966489,0.13078 1.388237,0.22254 3.2,1.28 M 207.20001,288.48 c 0.0884,0.22904 0.15447,0.40043 0.31431,0.80395 0.64743,1.63433 2.43106,4.06478 4.32569,5.91371 0.61513,0.60031 1.00547,0.9075 1.6,1.43431 0.89592,0.79389 2.21035,1.80524 3.2,2.32112 1.13929,0.59388 1.64133,0.48965 2.08,0.58531 0.20312,0.0443 0.3634,0.0995 0.93431,0.13531 0.21893,0.0137 0.68188,0.008 0.50569,0.006 m 47.52,-10.4 c 0.58889,0.12188 0.8916,0.0838 1.92,0.61137 2.24529,1.1518 5.66193,4.45285 7.68,6.22309 0.87828,0.77039 1.87295,1.61324 2.71371,2.35578 0.70871,0.62593 1.08176,1.63699 1.82863,2.17976 0.63584,0.46207 1.20985,0.3868 1.69766,0.59617 0.87285,0.37463 3.18305,2.25106 4.16,3.01963 1.7932,1.41074 4.53273,3.62699 6.07766,4.9284 0.85283,0.71842 1.28013,1.26762 1.71679,1.84901 0.0951,0.12667 0.27545,0.44582 0.56715,0.64679 0.39063,0.26912 0.6361,0.2559 0.75852,0.28903 0.42226,0.11419 0.88365,-0.0113 2.07988,0.80886 0.80703,0.55334 1.75059,1.25565 2.56,1.84 1.78393,1.28795 4.07281,2.79483 5.59371,4.13951 0.85467,0.75567 1.15543,1.17883 1.48578,1.71495 0.0953,0.15468 0.32014,0.49007 0.41026,0.95765 0.10724,0.55647 0.038,0.94041 0.003,1.28 -0.0951,0.92508 -0.49302,2.61934 -1.00086,3.84 -1.36308,3.27645 -3.88668,6.53488 -5.72888,9.92 -0.72055,1.32403 -1.47631,2.62457 -2.16358,4 -1.04303,2.08742 -2.2958,4.88418 -2.84814,6.88 -0.10672,0.38563 -0.53053,1.89274 -0.6416,2.02727 -0.37145,0.44996 -0.58139,0.4825 -0.86989,0.55312 -0.37209,0.0911 -1.3455,0.0678 -2.23988,-0.18679 -1.35443,-0.38555 -3.81357,-1.42145 -5.12,-2.03852 -3.00891,-1.42129 -6.54928,-2.95555 -8.37803,-5.4757 -0.41685,-0.57446 -0.54523,-0.94266 -0.74197,-1.27938 -0.56615,0.32336 -0.95174,0.9125 -2.24,0.76297 -0.81563,-0.0947 -1.81717,-0.82359 -2.56,-1.20383 -3.04924,-1.5609 -6.15715,-3.8539 -8.13272,-5.95285 -0.63283,-0.67234 -0.97584,-1.06129 -1.32025,-1.44543 -0.12984,-0.1448 -0.27738,-0.43152 -0.67283,-0.60863 -0.39553,-0.17715 -0.68914,-0.0219 -0.75483,-0.0106 -0.47845,0.0823 -0.90523,0.4475 -2.23937,-0.0162 -0.78149,-0.2716 -2.37902,-1.2625 -3.2,-1.82051 -0.87711,-0.59613 -1.61756,-1.20218 -2.4,-1.88972 -0.72225,-0.63465 -1.57621,-1.415 -2.24,-2.04891 -1.86608,-1.78203 -2.73082,-2.68223 -3.36,-4.00629 M 33.120001,290.4 c -0.66748,0.52934 -1.935776,1.41008 -3.52,2.20024 -0.530957,0.26484 -1.056228,0.40681 -1.6,0.76705 -0.776465,0.51439 -1.580796,1.16017 -2.56,1.73603 -0.809158,0.47586 -1.454851,0.58758 -2.18,0.9741 -0.355364,0.18942 -0.569986,0.4711 -0.876668,0.66704 -1.13602,0.72578 -2.603988,1.2741 -3.663332,1.49554 l -0.96,-2.24 m 16.64,-4.64 c -0.179116,1.1175 -0.881826,1.32069 -2.08,2.08803 -0.511484,0.32756 -1.162956,0.75973 -1.597654,1.09568 -0.314199,0.24283 -0.596335,0.55983 -1.008025,0.83149 -0.697404,0.46015 -1.354153,0.79134 -2.194321,1.30554 -0.81915,0.50133 -1.544868,1.03118 -2.24,1.47606 -0.529553,0.33891 -0.839832,0.38357 -1.44,0.68492 -0.604214,0.3034 -1.213709,0.66606 -1.338025,1.16074 -0.19398,0.77194 0.4597,1.50766 0.698025,1.91754 M 173.60001,291.68 c 0.15259,0.17647 0.3648,0.4067 0.87951,1.11789 0.30015,0.41475 0.59789,0.80801 1.04295,0.88977 0.51609,0.0948 0.71517,-0.049 0.95754,-0.078 0.45689,-0.0546 1.06326,-0.16254 1.92,-0.16963 M 27.040001,292 l 0.96,1.28 m 224.160009,-1.12 2.08,0.8 m -220.000009,-0.48 0.64,1.12 m 136.800009,-0.96 c 0.25789,0.88301 -0.63844,1.91641 -2.24,4 m -148.320009,-3.04 1.76,2.24 m 152.640009,-1.92 c 0.10718,0.56856 0.13031,1.10539 0.6758,2.24 0.1881,0.39127 0.55435,1.09975 0.93297,1.27063 1.11789,0.50449 0.784,0.20716 2.71123,-0.15063 m -8.16,-3.2 c 1.05142,1.54321 1.79371,3.97942 2.62382,6.08 0.20815,0.52668 0.33456,1.09709 0.55692,1.6 0.22656,0.51242 0.42668,0.7961 0.60357,1.28 0.2441,0.66776 0.69801,1.84957 0.94543,2.56 0.23463,0.67371 0.19139,1.04526 0.45074,1.6 0.35186,0.7526 0.78707,1.56002 1.11211,2.56 0.42057,1.29383 0.20801,1.42535 0.55358,2.4 0.16662,0.46998 0.3716,0.86973 0.5132,1.28 0.23379,0.67735 0.86748,2.61981 1.01395,3.36 0.059,0.29836 0.12119,0.78617 -0.0584,1.07149 -0.31403,0.4989 -0.74981,0.45976 -1.11494,0.58531 -0.53536,0.18406 -1.52586,0.58508 -2.24,0.9032 m -94.720007,-24.32 1.6,0.32408 1.44,0.47592 m -9.92,-0.48 c 2.001645,0 2.881636,0.14207 3.84,0.32 m -48.800002,0 0.48,1.28 m 146.720009,0.8 c 0.24732,1.8366 0.88884,3.4476 1.92,4.8 0.59998,-0.32058 1.07781,-0.48 3.52,-0.48 M 18.720001,298.24 c -1.279087,0.79414 -5.670724,1.52389 -7.840001,2.23988 -0.434987,0.14356 -1.4068649,0.48051 -1.7599997,0.54012 -0.4882269,0.0824 -0.7217377,0.0109 -0.96,0.0257 -0.4819196,0.0298 -1.1811542,0.17599 -1.9200001,0.23431 m 19.0400008,-3.04 1.44,1.76 m -6.72,2.88 -0.378148,-1.59308 1.018148,-0.88977 1.6,-0.39715 m 59.840002,0.64 c 0.69832,4.7e-4 1.095947,0.14955 3.04,0.48 M 281.92001,300.8 c -0.45549,0.85332 -0.29656,1.56637 -0.64629,3.04 -0.27328,1.15149 -0.69828,2.21135 -1.26891,3.36 -0.54867,1.10446 -1.30773,2.42703 -2.01134,3.52 -0.86311,1.34071 -2.23805,3.14723 -3.25494,4.48 -1.6675,2.18547 -3.78375,4.64487 -5.49852,6.72 -1.17572,1.42281 -2.01887,2.35543 -2.901,3.68 -0.42418,0.63696 -0.78056,1.54748 -1.05455,2.4 -0.69574,2.16485 -0.82732,3.25813 -0.96445,4.32 M 11.84,312 c -0.247874,-0.35961 -0.790133,-1.2873 -0.815925,-2.08 -0.02171,-0.66715 -0.05034,-0.96681 0.06395,-1.76 0.202121,-1.40267 0.707924,-2.49478 1.714445,-3.51937 1.349269,-1.37352 3.427148,-2.64782 5.277531,-3.11828 0.505509,-0.12852 0.863499,-0.16387 1.28,-0.24235 m -10.4000007,0.16 c -0.1068091,0.33778 -0.2010199,0.66309 -0.2951849,1.44 -0.06092,0.50262 -0.2060016,1.33469 -0.1570374,1.92 0.096247,1.15053 0.6345771,3.45936 1.1688892,4.31754 0.4322538,0.69426 0.7521748,0.80574 1.2033328,0.96246 m 163.84001,-8.32 -2.56,1.28 m 7.04,-0.48 c 0.0322,0.40762 -0.007,1.11766 0.40951,2.24 0.11707,0.31531 0.45072,0.92608 0.76308,1.11555 0.46989,0.28504 0.71465,0.16008 0.90752,0.16371 0.3795,0.007 1.08051,7.4e-4 1.91989,7.4e-4 M 76.000003,303.52 c 1.621772,0.30125 2.1904,0.3742 2.72,0.64 m 158.080007,0.64 h 0.64 m 29.6,0.16 0.32,0.48 m -87.04,0.64 c 0.0528,0.41758 0.0657,0.8933 0.26877,1.76 0.1605,0.685 0.60509,1.63074 0.80666,2.23977 0.0664,0.20049 0.23742,0.6723 0.44617,0.81566 0.52041,0.3574 0.68541,0.0636 1.1984,0.0122 0.59711,-0.0599 1.66451,-0.0277 2.4,-0.0277 m -8.8,-3.84 c -0.45547,0.32895 -0.79944,0.28692 -2.56,1.12 m -92.320007,0.48 c -0.22043,0.41305 -0.268086,0.78567 -0.347163,1.6 -0.07623,0.78504 -0.449131,3.22637 -0.196294,3.78569 0.229839,0.50841 0.512651,0.50857 0.864199,0.70877 0.540733,0.30791 1.247783,0.66542 1.759258,0.94554 m -8.8,-5.44 2.08,0.0616 1.44,-0.0616 m 103.360007,0.96 c 0.1347,1.70401 0.51732,3.4419 1.44,5.28 0.55187,-0.29414 0.93205,-0.22304 2.4,-0.16 m 110.24,-4.48 c -0.21586,1.69897 -0.3467,3.54088 -2.08988,6.4 -0.54006,0.8858 -1.05787,1.68324 -1.64346,2.56 -1.71297,2.56477 -3.85082,4.96709 -5.73135,7.52 -0.52068,0.70684 -0.9575,1.20547 -1.46,1.92 -0.87978,1.25102 -1.81523,2.52731 -2.56,3.84 -0.32883,0.57957 -0.46377,0.99395 -0.81519,1.53211 -0.21985,0.33664 -0.48348,0.64844 -0.68024,1.02852 -0.7022,1.35648 -1.32236,2.70031 -1.65988,4.15937 m -100.96,-28.64 c -0.75936,0.47196 -1.12215,0.63057 -2.56,1.12 m -94.880007,1.12 c -0.0094,1.13012 -0.692036,4.80012 -0.981607,5.92 -0.280014,1.08293 -0.650849,1.22194 -1.418393,1.28 m 198.080007,-6.88 1.12,0.32 m -203.840007,0 2.56,0.45297 1.44,0.34703 m 200.960007,-0.16 2.88,0.8 m -28.96,-0.16 c 0.27287,0.24553 0.50764,0.42617 1.44,1.08321 0.6133,0.43222 1.71035,1.30003 2.4,1.81705 1.95754,1.46752 3.90223,2.85789 5.92,4.109 0.69082,0.42834 1.97703,1.23369 2.51406,1.69051 0.53492,0.455 0.76018,0.67801 1.00594,0.90023 m -82.72,-9.44 c 0.0255,1.23176 0.23527,2.65473 0.8,4.16 0.56625,-0.15568 0.98644,0.023 2.72,0.16 m -6.72,-2.72 c 0.60095,1.04227 1.00339,3.95281 1.37506,5.11988 0.17552,0.55118 0.15509,0.88965 0.87197,1.09149 0.2789,0.0785 0.6784,0.0465 0.95051,0.0295 1.74935,-0.10928 0.80771,-1.77457 0.80246,-3.68086 m -104.640007,0.8 c 0.322842,0.2391 0.486055,0.39166 1.76,0.8 m 227.840007,-0.8 c 0.82869,0.0177 1.06799,-0.006 2.24,0.46863 0.5899,0.23879 1.7299,0.99598 2.4,1.47397 1.97106,1.40592 4.94901,3.70258 6.71766,5.08123 0.80037,0.62387 1.1958,1.16707 1.52937,1.62742 0.0823,0.1136 0.25805,0.43391 0.58309,0.62492 0.56463,0.3318 0.99258,0.24145 1.24988,0.32211 0.48449,0.15188 1.65053,0.81813 2.56,1.44578 1.80328,1.24454 4.33477,2.95524 5.71371,4.31606 0.32883,0.32449 1.24356,1.5684 1.5284,1.71605 0.71,0.36809 0.91289,0.16059 1.39789,0.40161 0.56848,0.28253 3.03211,2.06793 3.84,2.71421 1.63071,1.3045 3.05485,2.44997 4.31125,3.80801 0.36309,0.39246 0.77598,0.9686 0.81555,1.6 0.0306,0.48875 -0.0669,0.87586 -0.18336,1.28 -0.44066,1.52895 -1.46266,3.18418 -2.70344,4.64 M 73.120003,321.92 c 0.543574,0.15311 1.246821,0.35317 1.76,0.4326 1.003984,0.15539 1.278667,0.20693 1.6,0.18803 0.449048,-0.0265 0.920927,-0.39557 1.44,-0.78063 m -1.12,0.96 c -1.81e-4,0.27664 0.03769,0.51461 -0.02778,1.12024 -0.205136,1.89746 -1.280317,4.14101 -1.892221,4.95976 -0.67462,-0.37402 -1.108926,-0.75043 -3.84,-1.12 m 8.16,-3.36 1.12,0.32 m 101.600007,-0.32 c -0.57907,0.51465 -1.48416,0.91321 -4.48,1.6 m 6.72,-1.6 c 0.30713,0.36387 0.36406,0.59203 1.28,1.92 0.43205,-0.28517 0.86834,-0.48 2.72,-0.48 m -5.6,-1.28 c 0.002,0.27432 -0.002,0.51291 0.0272,0.80395 0.0956,0.95783 0.73575,3.71914 1.04655,6.07605 0.0567,0.43 0.0492,0.84453 0.16,1.28 0.33859,1.33047 0.64595,3.04363 0.8858,4.48 0.17234,1.03211 0.10541,1.41125 0.24443,2.24 0.0751,0.44754 0.23928,0.79742 0.31779,1.12 0.12401,0.50946 0.24249,1.20168 0.37901,1.76 0.27432,1.12184 0.62238,1.13703 0.73875,2.08 0.0374,0.30274 -0.11486,0.91821 -0.12924,1.12 -0.0655,0.91879 -0.0825,1.3168 -0.14396,2.72 -0.0268,0.61125 0.002,1.50949 -0.007,2.08 -0.006,0.41778 -0.05,0.68039 -0.11357,1.12 -0.10123,0.7 -0.0456,1.30356 -0.0457,2.4 -6e-5,1.08422 -0.27448,1.96125 -0.15705,3.2 0.0639,0.67371 0.1542,1.07055 0.15693,1.6 0.002,0.37004 0.15506,2.50492 0.15949,2.88 0.01,0.8268 -0.0753,1.0834 0.006,1.76 0.0619,0.51555 0.43016,1.76813 0.54197,2.56 0.0632,0.4475 0.13539,1.04133 -0.16383,1.3436 -0.30568,0.30879 -0.68896,0.27164 -1.02345,0.32367 -0.96342,0.14992 -2.076,0.5423 -3.2,0.73273 m 109.6,-42.88 c 1.65426,1.23633 2.57916,1.08592 3.52,1.28 m -29.12,-0.8 c 0.31408,0.26071 0.61842,0.48246 1.28,0.94137 0.66303,0.4599 1.81598,1.28004 2.56,1.77851 1.9551,1.30981 3.91596,2.59106 5.92,3.80766 1.31799,0.80008 2.84881,1.53395 3.84,2.11246 m -94.4,-8.16 c 1.1e-4,1.15557 0.0532,2.42711 0.64,4.16 l 1.28,-0.17422 1.6,-0.14515 2.4,-0.16063 M 74.880003,328.8 c -0.170152,0.90309 -0.571241,2.59371 -1.553579,4.64 -0.236773,0.49321 -0.471119,0.77457 -0.759263,1.28 -0.499102,0.87547 -0.487422,1.52168 -1.086665,2.72 -0.292647,0.58524 -0.563443,1.02969 -0.864444,1.6 -0.265049,0.50219 -0.347744,0.90766 -0.58605,1.44 -0.191298,0.42735 -0.670185,1.24485 -0.70457,1.6 -0.02839,0.29328 0.08066,0.59895 0.446299,0.93321 0.273145,0.24972 0.39835,0.40363 0.737534,0.29148 0.260049,-0.086 0.342725,-0.46957 0.381109,-0.58789 0.112231,-0.34606 0.303642,-0.86152 0.509257,-1.2768 0.278384,-0.56226 0.855616,-1.81219 1.300992,-2.09777 0.455039,-0.29176 0.844375,-0.15406 1.21938,-0.0907 0.49644,0.0838 1.12622,0.31402 1.6,0.58851 M 186.08001,330.4 c 9e-5,0.99391 0.34455,2.76438 0.60629,4 0.0791,0.37363 0.15353,1.17981 0.44962,1.46508 0.51215,0.4934 0.94213,0.39641 1.34409,0.46715 0.60228,0.10601 2.41289,0.45848 3.52,0.46777 M 76.800003,330.72 c -0.553418,0.62078 -1.080996,1.44848 -1.583951,2.88 -0.135454,0.38555 -0.176626,0.70914 -0.378149,1.12 -0.206562,0.42113 -0.481963,0.77774 -0.68543,1.12 -0.76643,1.2893 -1.167734,2.3168 -1.35247,3.2 m 249.760007,-8.16 c -0.0802,1.01649 -0.15494,2.16039 -0.67652,3.68 -0.82059,2.39074 -2.62192,5.2493 -4.10313,7.84 -0.44527,0.77879 -1.07263,1.64563 -1.50517,2.4 -0.64129,1.11844 -1.44381,2.45364 -1.99381,3.52 -0.34047,0.66012 -0.61483,1.40715 -0.94779,2.08 -0.24612,0.49735 -0.59151,1.19016 -0.82147,1.76 -0.29115,0.72145 -0.97195,2.81242 -1.40174,3.29703 -0.49158,0.5543 -0.91486,0.68555 -1.83037,0.69024 -0.73094,0.004 -1.82223,-0.27492 -2.56,-0.52059 -1.30254,-0.43379 -2.63725,-1.03699 -3.84,-1.6716 -0.77674,-0.40984 -1.48994,-0.80547 -2.24,-1.25176 -0.78322,-0.46597 -1.84588,-1.28543 -2.39371,-1.79676 -0.83711,-0.7814 -1.1168,-1.12511 -1.44629,-1.46656 m -113.12,-16.8 c -0.91313,0.60524 -1.86215,0.8 -4.64,0.8 m -109.920008,0 c 1.512549,0.54442 2.586915,0.6902 3.360001,1.28 m 2.72,0.16 c 0.278144,0.0941 0.560258,0.17238 1.44,0.5484 0.436552,0.1866 0.83478,0.38648 1.28,0.5716 m 227.200007,-1.12 0.32,0.16 m -23.52,0.64 c 0.24652,0.16383 0.44984,0.27383 1.28,0.77149 0.89855,0.53867 2.94988,1.70863 4,2.29074 1.82322,1.01066 3.60113,1.79414 5.44,2.66269 1.57414,0.74356 2.79287,1.4793 4.32,2.11508 m -109.92,-7.52 c 0,0.28571 -0.0181,0.57043 0.006,1.12024 0.0194,0.43574 0.16318,1.16683 0.24976,1.59976 0.2792,1.39613 0.39988,2.52293 0.51912,3.52 0.0755,0.63156 0.3934,0.92547 0.0141,1.54914 -0.18841,0.30981 -0.96701,0.36731 -1.26925,0.37086 m 121.44,-8.16 h 1.12 m -241.120008,1.92 c 1.678399,0.57133 1.882691,0.76641 2.4,1.12 m 263.200008,-0.32 c -0.0281,1.36563 -0.25078,2.86981 -0.89394,4.64 -1.00914,2.77754 -3.63442,6.82375 -5.06743,9.6 -0.54623,1.05824 -1.13216,2.11348 -1.58886,3.2 -0.33076,0.78688 -0.67192,1.62309 -0.99768,2.4 -0.25945,0.61879 -0.83756,1.86656 -0.65135,2.39309 0.11707,0.33105 0.29666,0.49199 0.72186,0.74875 0.66439,0.40125 1.7616,0.7675 2.5574,1.0141 1.69473,0.52512 3.68961,0.9177 5.44,1.18961 0.63039,0.0979 0.92824,0.21894 1.39606,-0.07 0.4023,-0.24848 0.56277,-0.77109 0.75355,-1.11555 0.55906,-1.00929 1.13363,-1.97933 1.69039,-3.04 m -156.16,-19.36 c 2.37283,-0.66836 2.88429,-0.57234 3.84,-0.8 m -119.360008,2.4 c 0.534917,0.20746 1.202154,0.46422 1.6,0.6616 0.723633,0.35903 1.183125,1.16911 2.08,-0.0216 m 1.28,0.96 c -0.176118,0.82203 -0.644047,1.51957 -0.966171,2.4 -0.171392,0.46844 -0.229488,0.84641 -0.490494,1.28 -0.324511,0.53906 -0.524365,0.83594 -0.822348,1.44 -1.001109,2.02938 -1.873321,3.72848 -2.611236,5.76 -0.275512,0.75852 -0.38875,1.35524 -0.388515,2.08 2.34e-4,0.72594 0.66999,2.32133 0.843457,2.72 0.127817,0.29375 0.149004,0.66125 0.517407,1.05297 0.309824,0.32942 0.713384,0.41973 0.878022,0.46406 0.660909,0.17797 1.402515,0.24067 2.239878,0.24297 m 1.440001,-17.44 c 0.689643,0.14274 1.162192,0.31231 2.72,0.96 m 247.520007,-0.96 c 1.08236,0.0466 1.34369,0.16055 1.92,0.48 M 68.160002,343.68 c -0.199663,0.58485 -0.357856,1.32117 -0.842099,2.24 -0.220406,0.41821 -0.809199,1.18039 -1.238516,1.19024 -0.519951,0.012 -0.680044,-0.24203 -0.959385,-0.4175 -0.343579,-0.2159 -0.871259,-0.53438 -1.44,-0.77274 m 124.320008,-1.76 2.08,0.31199 2.56,0.48801 m -4.16,-0.32 c -0.001,0.42614 -0.10522,0.9727 -0.15371,2.08 -0.0198,0.45293 -0.009,1.32453 -0.006,1.76 0.002,0.25406 -0.0281,0.76996 0.16432,1.02977 0.38281,0.51683 0.74768,0.37711 1.27557,0.40406 0.48529,0.0248 1.22254,0.13027 1.76,0.32617 m 108.32,-5.12 c 0.74744,0.49297 1.06352,0.6436 1.6,0.96 m -120,0.16 c 0.74088,-0.0339 2.69588,-0.48347 3.2,-0.57777 0.8949,-0.16742 1.11898,-0.19668 1.44,-0.22223 m 116.32,0.96 c 1.9207,0.79965 6.24889,2.83836 8.16,3.36 M 69.120002,347.04 c 0.627544,0.44289 1.214131,0.57578 2.720001,1.28 m 272.320007,-1.28 c 0.78219,0.11723 1.145,0.19942 2.08,0.9311 1.6225,1.26968 3.14938,2.8607 4.64,4.3489 2.46367,2.45969 4.83324,4.87836 7.20629,7.36 1.50676,1.57571 2.97621,2.61442 4.15371,4.16 M 66.080002,347.36 c -0.09966,0.51211 -0.204121,1.19637 -0.62247,2.08 -0.205122,0.43324 -0.620772,1.11375 -0.992466,1.26766 -0.461143,0.19094 -0.658706,-0.0283 -0.945064,-0.1636 -0.355718,-0.16804 -0.988447,-0.4441 -1.44,-0.62406 m 269.600008,-1.44 c 0.81844,0.0169 2.58918,0.16563 3.68,0.96 m -147.2,0.32 c -0.003,0.93699 -0.16196,2.71578 -0.16,4.32 6e-4,0.49864 0.0242,0.90352 0.0242,1.44 0,0.50399 -0.0225,0.78352 -0.0241,1.28 -0.006,1.90871 -0.0888,3.89723 0.31989,5.28 0.78175,-0.2289 2.36656,0.30965 4.32,0.48 m 120.96,-12.32 c 0.2926,0.23805 0.44918,0.32489 1.28,1.12 M 64.320002,351.04 c -0.232544,0.9786 -1.714043,3.46696 -2.861972,4.96 -0.24397,0.31731 -0.771426,0.8559 -0.874693,1.28 -0.136938,0.56235 0.06452,0.79024 0.443208,1.27766 0.355571,0.45765 0.925176,0.91312 1.373457,1.19234 0.651353,0.40571 1.926114,0.71313 2.56,0.81508 0.674751,0.10852 0.952237,-0.0711 1.28,-0.24508 m 115.200008,-8.48 c 2.47052,-2.7e-4 3.54752,-0.45371 4.16,-0.48 m 131.36,0.8 c 1.13469,0.26891 4.24797,1.67961 5.28,2.08 m 0.96,0.48 c 0.48455,0.0423 0.73535,0.12231 1.6,0.32 m 22.08,-0.16 1.28,0.64 m -159.84,0 c 0.56761,0.16785 2.48927,0.56141 4.32,0.64 m 118.56,-0.64 1.28,1.13531 2.72,1.38961 5.28,2.1684 2.08,0.61742 1.44,-0.0307 m -142.56,-3.2 c 2.19246,-0.0452 3.33988,-0.6048 4.16,-0.64 m -127.840008,0.96 2.56,-0.48 m 128.000008,4.64 c 0,1.30285 0.10777,2.60758 0.47025,4.32 0.0961,0.45414 0.13992,0.85196 0.16629,1.28 0.0461,0.74824 0.14389,1.49723 0.29271,2.24 0.10241,0.5111 0.70473,2.10137 0.93286,2.30344 0.5672,0.50254 0.88443,0.25637 1.33789,0.25656 0.55457,2.4e-4 1.695,-0.11633 2.4,0 m -12.64,-8.48 c 2.42203,-0.11066 3.66449,-0.79191 4.64,-0.8 m 148.8,0.64 1.12024,0.4316 1.91976,0.20274 4.32,0.32578 12,0.32617 1.6,0.15137 3.2,0.002 h 1.6 m -171.52,1.28 c 0.96904,6.3e-4 2.09761,0.40621 4.96,0.64 m -7.04,0.16 c 0.17035,1.34781 -0.0337,1.58922 0.27593,2.72 0.11282,0.41196 0.24012,0.72586 0.32987,1.12 0.19734,0.86664 0.53031,2.34735 0.65322,3.2 0.0956,0.66328 0.27131,1.54914 0.33295,2.08 0.0303,0.2611 0.0249,0.70414 0.2374,1.05692 0.24703,0.41015 0.56297,0.43703 0.73371,0.48234 0.34057,0.0904 1.29787,0.21813 2.07692,0.22063 1.98222,0.006 2.07488,-0.6718 3.68,-0.79989 m -8.16,-7.36 -1.28,0.64977 -2.24,0.95023 m 6.88,1.12 c 0.11095,1.02149 0.47,1.69344 1.62777,2.86321 0.32645,0.32984 1.08658,0.74925 1.37789,0.9705 0.44658,0.33918 0.55143,0.62293 0.67434,0.80629 m -5.44,0.32 -0.73666,1.28 -1.34334,2.4"
       id="path1" />
  </g>
</svg>
