<svg version="1.0" xmlns="http://www.w3.org/2000/svg"
  viewBox="0 0 1200.586472 984.961178"
 preserveAspectRatio="xMidYMid meet">
<metadata>
For more coloring pages, please visit ColoringAll.com
</metadata>
<g transform="translate(-0.103109,984.961178) scale(0.100000,-0.100000)"
fill="#000000" stroke="none">
<path d="M3324 9836 l-31 -14 -17 -153 c-21 -180 -62 -350 -110 -454 -54 -117
-78 -141 -190 -196 -97 -48 -126 -57 -126 -41 0 4 11 46 24 92 37 127 49 214
43 304 -9 144 -65 246 -127 231 -38 -9 -64 -45 -99 -137 -41 -106 -83 -171
-129 -200 -36 -22 -43 -23 -274 -21 l-237 2 6 -140 6 -140 -39 6 c-63 11 -171
67 -278 144 -55 39 -103 71 -108 71 -32 0 -11 -150 49 -333 38 -119 53 -220
34 -231 -6 -4 -73 13 -148 38 -158 51 -260 79 -275 74 -5 -2 11 -31 36 -63 79
-102 176 -238 176 -246 0 -10 -40 -4 -140 22 -104 28 -232 94 -464 242 -109
70 -202 127 -207 127 -14 0 -21 -41 -14 -78 13 -69 48 -117 179 -247 117 -117
146 -139 278 -218 187 -112 259 -165 289 -213 21 -34 24 -51 24 -138 l0 -100
-90 -29 c-72 -24 -109 -30 -185 -30 -88 -1 -106 2 -240 47 -149 49 -252 68
-264 47 -10 -15 73 -93 212 -199 l113 -87 -223 -6 c-123 -3 -245 -11 -273 -18
-122 -29 -309 -103 -347 -138 -22 -20 -23 -56 -3 -73 15 -13 23 -12 362 25
109 12 549 -31 624 -61 79 -32 106 -167 52 -266 -47 -87 -95 -95 -303 -51
-106 22 -158 26 -340 30 -186 4 -413 -7 -426 -20 -19 -18 72 -83 156 -110 25
-8 139 -36 255 -62 225 -50 367 -100 500 -175 95 -55 157 -110 252 -223 102
-123 199 -222 311 -319 54 -47 95 -90 98 -105 15 -56 -47 -219 -108 -289 -45
-51 -100 -76 -412 -181 -258 -86 -285 -94 -335 -88 -88 9 -195 51 -386 149
-211 108 -215 110 -215 92 0 -11 61 -118 115 -201 16 -25 9 -21 -40 21 -79 67
-146 111 -180 120 -26 6 -27 6 -15 -17 17 -32 72 -99 144 -176 32 -35 56 -63
53 -63 -3 0 -62 38 -130 84 -114 76 -171 105 -184 92 -13 -13 50 -86 150 -177
119 -107 246 -198 344 -248 l62 -31 186 0 c111 0 185 -4 185 -10 0 -18 -125
-111 -165 -121 -48 -13 -144 0 -273 38 -93 27 -164 34 -171 18 -8 -18 110
-103 213 -155 133 -66 208 -85 280 -70 60 12 184 69 233 106 18 14 98 101 179
195 119 139 160 180 221 220 97 63 107 63 99 2 -13 -92 -55 -229 -104 -343
-27 -63 -86 -200 -131 -303 -45 -103 -105 -256 -133 -340 l-52 -152 0 -135 c0
-160 12 -215 69 -335 75 -154 198 -281 285 -292 28 -4 69 4 142 26 162 50 189
62 225 95 39 35 46 62 63 216 6 58 15 121 21 141 10 40 87 162 140 222 l34 39
84 -96 c47 -52 91 -98 99 -101 7 -3 25 -2 38 1 17 4 34 -1 57 -18 17 -14 66
-44 107 -68 41 -24 99 -57 128 -74 l52 -30 55 -141 c31 -78 62 -151 70 -163 9
-12 31 -24 53 -27 79 -14 142 -36 192 -70 29 -19 53 -35 55 -35 2 0 10 21 19
47 25 72 21 196 -9 381 -7 42 -7 42 22 42 16 0 32 2 35 6 3 3 -3 37 -13 77
-25 102 -49 272 -49 356 0 64 2 72 18 67 132 -41 370 -53 461 -25 l45 15 -52
33 c-63 40 -82 43 -97 13 -7 -12 -15 -25 -18 -28 -3 -4 -105 22 -226 57 -122
34 -223 60 -227 57 -3 -4 1 -38 10 -76 21 -91 51 -462 63 -777 4 -104 -5 -165
-25 -165 -5 0 -48 34 -97 76 l-88 75 -27 -26 -27 -26 -44 127 c-26 76 -56 144
-74 167 -32 42 -136 110 -385 253 -98 57 -156 96 -158 107 -2 11 5 29 16 40
11 12 25 32 31 45 10 18 9 23 -4 29 -33 12 -231 -210 -285 -322 -25 -49 -33
-85 -45 -198 -8 -76 -22 -151 -30 -166 -14 -28 -42 -44 -99 -57 l-29 -7 6 84
c10 120 30 190 89 306 28 56 50 105 47 108 -9 8 -108 -120 -128 -166 -11 -24
-27 -84 -36 -134 -24 -127 -25 -128 -49 -50 -24 75 -69 170 -86 180 -18 11
-11 -28 20 -105 30 -78 39 -155 20 -191 -27 -49 -130 -65 -198 -30 -61 31
-129 113 -178 214 -54 113 -69 211 -53 352 18 166 54 271 214 631 134 301 189
439 218 548 15 55 32 97 47 113 13 13 98 61 189 105 186 91 233 129 295 240
62 111 86 183 152 446 54 219 70 269 117 365 104 211 358 566 466 652 66 52
210 135 235 135 18 0 19 -6 13 -122 -11 -219 -73 -513 -129 -605 -18 -29 -104
-128 -191 -220 -251 -264 -292 -313 -316 -378 -30 -79 -26 -100 19 -100 l35 0
7 57 c10 80 27 108 137 222 176 184 264 280 354 389 49 60 117 131 149 158 71
59 220 133 383 189 208 72 399 171 713 368 83 53 83 53 67 21 -9 -17 -14 -33
-12 -35 2 -3 85 73 183 168 343 331 470 428 657 502 159 63 186 66 586 66 482
-1 541 -9 809 -114 265 -104 592 -252 592 -267 0 -5 -13 -15 -30 -24 -17 -9
-30 -19 -30 -24 0 -8 211 -32 219 -25 2 2 -13 13 -33 25 -20 12 -36 22 -34 23
2 1 71 -1 153 -5 83 -4 294 -13 470 -19 368 -13 512 -21 975 -55 184 -14 475
-32 645 -40 530 -26 710 -44 870 -86 396 -103 807 -417 1147 -876 211 -284
344 -565 369 -777 22 -196 -7 -666 -42 -666 -17 0 -40 108 -46 214 -7 128 -4
130 -94 -45 -32 -64 -77 -143 -99 -177 -53 -83 -170 -204 -320 -331 -610 -515
-865 -828 -1043 -1281 -95 -241 -129 -420 -152 -799 -16 -274 -17 -275 -104
-359 -136 -131 -292 -242 -626 -447 -490 -301 -957 -648 -1270 -944 -113 -106
-171 -155 -197 -163 -51 -15 -129 -87 -253 -232 -131 -153 -190 -211 -237
-231 -43 -17 -213 -38 -276 -33 l-42 3 41 68 c23 38 48 71 57 75 9 3 79 0 156
-6 77 -6 142 -9 144 -7 7 6 -41 23 -142 50 -49 14 -91 27 -94 30 -3 3 34 42
84 88 49 45 178 167 286 270 404 385 554 510 1008 837 236 171 456 346 510
407 101 114 114 162 190 688 33 226 78 534 102 685 40 263 42 285 41 490 0
118 -6 262 -12 320 -5 58 -18 179 -28 270 -12 121 -17 258 -17 515 -1 387 2
416 65 694 21 96 37 176 35 179 -13 12 -95 -212 -128 -348 -29 -122 -37 -601
-14 -885 8 -110 18 -243 22 -296 l6 -96 -108 -7 c-200 -12 -270 -25 -844 -155
-208 -47 -330 -66 -505 -80 -211 -18 -643 -41 -882 -48 -199 -6 -223 -5 -223
10 0 8 32 100 71 204 76 204 139 401 139 436 -1 19 -2 20 -10 6 -15 -26 -155
-395 -204 -538 -25 -72 -75 -249 -111 -394 -116 -461 -151 -567 -295 -911 -72
-171 -90 -262 -90 -457 0 -196 15 -324 70 -596 79 -386 125 -529 239 -745 34
-63 61 -120 61 -127 0 -13 -23 -11 -66 6 -28 10 -14 -14 75 -131 44 -58 92
-129 107 -158 37 -74 42 -159 15 -263 -32 -124 -67 -220 -80 -220 -6 0 -25 20
-41 45 l-30 45 0 -65 c-1 -74 -9 -67 -35 32 l-18 67 40 48 c53 63 117 162 111
169 -3 2 -29 -25 -57 -61 -29 -36 -64 -71 -78 -78 -30 -13 -32 -11 -95 98 -23
39 -83 131 -133 205 -104 154 -105 157 -135 395 -44 343 -109 561 -291 972
-54 121 -106 247 -114 279 -10 41 -18 157 -25 408 -20 690 -38 927 -86 1145
-33 149 -49 183 -143 289 -172 196 -182 215 -292 552 -66 202 -74 220 -77 181
-4 -49 54 -292 99 -415 34 -93 82 -172 219 -361 97 -133 140 -202 140 -224 0
-19 -509 -168 -700 -205 -286 -56 -396 -55 -527 4 -137 63 -184 106 -366 345
-42 55 -106 134 -143 175 -36 41 -107 122 -157 180 -50 58 -96 111 -103 119
-10 11 -18 4 -48 -40 -20 -30 -36 -57 -36 -61 0 -4 26 -15 58 -24 50 -16 69
-30 152 -113 87 -88 145 -160 304 -379 38 -53 86 -104 140 -146 105 -83 130
-111 155 -167 43 -97 84 -440 84 -704 0 -195 -7 -260 -54 -470 -21 -96 -22
-118 -20 -526 1 -269 -2 -458 -9 -510 -21 -161 -130 -527 -201 -676 -27 -56
-43 -73 -172 -176 -167 -134 -307 -263 -307 -283 0 -20 27 -31 147 -61 132
-32 280 -37 328 -11 32 18 82 68 160 162 53 64 108 95 167 96 64 0 84 13 97
66 25 97 31 151 51 422 53 715 119 1040 309 1530 116 297 128 339 206 749 84
438 98 487 158 524 57 35 347 123 347 105 0 -3 14 -120 30 -259 27 -224 31
-303 40 -707 6 -250 14 -475 20 -500 14 -72 41 -140 155 -400 164 -375 222
-570 260 -880 28 -229 43 -270 190 -505 80 -129 141 -256 180 -375 38 -117 51
-140 78 -140 33 0 60 23 96 79 67 104 132 342 117 425 -6 34 -44 113 -113 236
-17 30 -40 92 -51 137 -20 77 -46 144 -142 363 -49 110 -96 282 -144 530 -59
295 -70 390 -70 585 -1 211 -5 196 124 525 114 292 147 396 235 744 41 158 75
289 77 290 2 2 190 10 418 20 707 28 822 41 1289 147 466 105 539 118 722 125
l166 7 7 -24 c3 -13 9 -87 12 -164 8 -163 0 -239 -61 -630 -42 -271 -71 -469
-115 -795 -12 -85 -32 -204 -45 -264 -48 -216 -78 -245 -770 -766 -473 -356
-497 -376 -780 -646 -136 -130 -325 -304 -419 -388 -94 -84 -198 -181 -230
-215 -51 -54 -57 -64 -44 -77 26 -26 155 -46 274 -42 148 5 188 25 330 161 97
92 110 102 152 107 46 5 48 7 151 135 215 266 394 431 790 729 252 189 502
357 791 531 321 194 519 335 628 447 l43 45 19 319 c11 175 27 357 36 403 28
154 153 526 204 609 l20 32 72 -36 c260 -130 423 -307 643 -699 43 -77 129
-229 192 -338 63 -109 135 -238 159 -285 l45 -87 -4 -255 c-3 -205 -8 -277
-26 -366 -51 -268 -284 -963 -375 -1119 -37 -62 -95 -105 -301 -225 -169 -98
-295 -194 -295 -225 0 -27 148 -57 295 -59 81 -1 114 4 174 23 89 29 192 96
293 190 87 81 104 91 157 91 38 0 40 1 55 47 31 96 87 308 205 768 120 472
179 683 265 958 25 82 51 182 57 222 18 119 3 164 -181 554 -189 402 -231 526
-252 742 -9 99 -9 158 1 266 22 247 123 705 202 911 146 383 154 419 153 687
-1 312 -36 468 -155 695 -128 243 -320 501 -534 716 -289 290 -547 454 -889
563 -147 47 -254 60 -656 76 -435 17 -632 28 -1130 60 -206 13 -517 31 -690
40 -633 31 -680 41 -1013 219 -216 115 -361 168 -562 203 -83 15 -159 18 -455
17 -671 -1 -795 -41 -1172 -380 -176 -158 -282 -241 -458 -359 -266 -177 -484
-290 -706 -368 -160 -56 -202 -75 -301 -134 -51 -31 -96 -53 -99 -51 -3 3 13
86 35 184 22 99 45 208 51 243 l11 63 -61 64 c-45 47 -60 69 -55 82 60 156
137 439 199 737 43 207 68 280 180 545 122 286 120 277 121 575 0 176 -4 263
-13 292 -21 70 -177 284 -205 283 -7 -1 -26 -7 -43 -14z m101 -138 c67 -78 76
-107 87 -267 14 -200 5 -408 -22 -492 -11 -37 -61 -155 -110 -263 -103 -225
-116 -266 -165 -536 -39 -214 -84 -409 -117 -510 -43 -132 -81 -192 -206 -322
-64 -68 -153 -161 -196 -208 -81 -87 -262 -350 -329 -477 -49 -94 -97 -243
-137 -423 -51 -234 -61 -273 -86 -317 -37 -65 -312 -307 -424 -373 -104 -61
-440 -205 -584 -249 -87 -27 -264 -29 -347 -5 -113 33 -272 130 -382 233 -57
53 -112 120 -104 127 2 3 59 -26 126 -65 200 -114 336 -155 516 -155 130 1
173 13 370 108 155 75 247 130 335 201 75 60 125 88 190 105 71 19 105 45 138
107 37 71 46 122 37 208 -7 59 -18 85 -118 263 -99 178 -161 301 -299 592 -25
52 -60 114 -77 138 -38 51 -168 149 -254 191 -176 87 -603 132 -895 96 -79
-10 -145 -15 -148 -12 -9 9 151 66 255 91 184 45 428 43 659 -5 250 -51 347
-99 539 -265 82 -72 120 -94 161 -94 64 0 187 175 242 344 48 148 23 306 -85
525 -84 170 -154 261 -320 416 -250 235 -280 265 -265 265 22 0 365 -185 435
-235 33 -23 132 -105 220 -180 187 -161 256 -215 276 -215 9 0 63 48 121 108
130 131 137 151 120 333 -9 101 -19 140 -87 343 -71 211 -102 346 -79 346 5 0
54 -39 109 -86 55 -47 121 -97 147 -110 101 -51 232 -68 311 -40 167 60 303
305 358 644 30 189 27 185 84 120z m-597 -193 c35 -77 39 -266 6 -343 -22 -54
-87 -152 -101 -152 -9 0 -60 36 -152 108 l-24 19 61 84 c33 46 88 135 122 197
34 61 65 112 69 112 5 0 13 -11 19 -25z m-638 -325 c25 -6 66 -18 91 -26 46
-15 46 -15 64 -82 10 -37 46 -143 81 -237 86 -235 97 -280 98 -410 1 -95 -2
-116 -22 -156 -21 -44 -130 -159 -150 -159 -18 0 -85 51 -206 158 -66 59 -174
149 -238 200 l-116 93 -6 67 c-12 127 -29 207 -67 317 -22 60 -38 113 -37 117
2 5 39 -14 83 -42 114 -72 174 -93 269 -94 l79 -1 15 42 c14 36 14 53 4 115
-7 40 -15 84 -19 97 -5 19 -3 22 13 18 10 -3 39 -11 64 -17z m-1267 -563 c357
-215 393 -230 560 -228 140 2 151 -3 227 -90 167 -190 297 -416 325 -562 19
-98 19 -143 0 -232 -20 -95 -73 -197 -148 -282 l-62 -71 -95 92 c-136 131
-229 183 -455 251 -50 15 -103 34 -120 43 -36 18 -327 243 -322 249 2 2 55
-13 118 -32 140 -44 215 -55 297 -44 112 16 231 89 266 163 34 73 10 183 -59
264 -34 41 -117 98 -211 145 -128 64 -247 152 -345 254 -97 102 -166 183 -154
183 4 0 84 -47 178 -103z m416 -1408 c19 -12 63 -49 97 -83 66 -66 107 -139
199 -351 95 -220 210 -433 295 -545 l41 -55 -33 -29 c-62 -53 -150 -116 -163
-116 -28 0 -298 255 -411 388 -135 160 -183 203 -302 271 -170 97 -306 143
-621 211 -102 22 -189 44 -194 49 -5 5 56 12 156 16 295 13 330 11 462 -24
165 -44 229 -49 287 -23 72 32 94 79 134 290 5 27 10 27 53 1z m626 -1181
c-26 -102 -86 -159 -182 -174 -31 -5 -43 -3 -43 6 0 16 234 254 238 241 2 -6
-4 -38 -13 -73z m-1750 -639 c186 -124 242 -143 525 -179 268 -33 284 -40 148
-60 -235 -34 -303 -31 -405 21 -66 34 -279 189 -353 258 -55 51 -44 46 85 -40z
m295 -52 c47 -25 94 -53 105 -61 19 -15 18 -15 -15 -10 -67 11 -173 71 -245
139 l-70 65 70 -43 c39 -24 108 -64 155 -90z m770 -93 c0 -10 -98 -133 -174
-218 -77 -86 -192 -169 -259 -187 -25 -7 -70 -8 -114 -4 -60 6 -92 16 -194 66
-66 33 -119 63 -116 65 2 3 57 -9 122 -26 129 -33 207 -38 261 -15 19 8 91 68
159 134 69 66 144 130 167 142 77 39 148 60 148 43z m10460 -81 c1 -5 5 -28
10 -53 13 -67 -1 -148 -90 -510 -131 -539 -156 -690 -147 -875 16 -294 80
-495 321 -1007 116 -246 116 -247 116 -322 0 -93 -15 -159 -91 -395 -33 -102
-114 -404 -179 -669 -132 -533 -219 -858 -244 -912 l-16 -35 6 50 c3 28 8 65
11 82 3 18 1 33 -4 33 -5 0 -42 -50 -83 -112 -92 -138 -204 -255 -280 -291
-89 -43 -188 -60 -315 -53 -116 6 -164 15 -166 30 -1 6 34 30 77 54 l79 43
125 -5 c69 -3 138 -8 154 -12 47 -11 23 11 -56 53 l-71 37 30 25 c16 14 63 54
105 88 91 73 112 107 189 299 120 295 248 702 294 927 50 251 53 592 7 715
-11 29 -74 144 -140 255 -66 111 -161 279 -212 372 -237 434 -388 610 -642
746 -54 29 -98 58 -98 64 0 15 112 166 228 305 129 156 302 325 537 525 256
217 402 364 474 473 48 73 70 97 71 75z m-6474 -1555 c-17 -57 -49 -217 -101
-493 -69 -365 -104 -503 -154 -611 -48 -103 -80 -149 -186 -271 -87 -101 -124
-157 -112 -170 4 -4 41 26 82 67 41 41 75 69 75 63 0 -18 -101 -417 -107 -423
-3 -3 -2 18 2 46 8 63 -9 82 -25 27 -16 -55 -55 -293 -81 -483 -15 -117 -18
-165 -10 -168 14 -5 15 -284 1 -460 -10 -131 -42 -288 -65 -318 -10 -15 -16
-16 -25 -7 -10 9 -8 22 5 57 10 26 15 49 12 52 -7 8 -256 -240 -310 -308 -50
-64 -82 -71 -253 -62 -74 4 -134 9 -134 13 1 3 7 17 15 31 8 14 14 33 15 43 0
17 -3 17 -36 -4 -33 -20 -35 -20 -26 -3 6 10 31 39 55 63 l45 43 100 -22 c133
-29 187 -23 82 8 -41 13 -86 28 -100 33 l-25 11 36 31 c20 18 69 58 109 89 40
32 83 72 96 90 51 68 183 526 214 737 41 287 45 394 20 619 -25 231 -25 232
41 494 34 137 39 171 39 270 -1 224 -20 526 -44 688 -14 90 -24 165 -23 166 1
1 97 7 212 13 140 8 263 21 370 40 204 37 199 37 191 9z m-3658 -111 c-34 -28
-88 -60 -88 -53 0 9 94 76 105 75 6 0 -2 -10 -17 -22z m3092 -2143 c0 -8 -4
-12 -10 -9 -5 3 -10 10 -10 16 0 5 5 9 10 9 6 0 10 -7 10 -16z m3131 -707
c-46 -67 -120 -144 -121 -126 0 22 48 86 98 132 23 20 45 37 48 37 3 0 -8 -19
-25 -43z M3162 8683 c-33 -64 -68 -189 -111 -396 -91 -432 -141 -542 -375
-822 -131 -156 -160 -194 -153 -202 17 -17 299 299 365 410 79 131 151 339
206 592 14 66 42 194 62 284 19 89 33 165 30 168 -2 3 -13 -12 -24 -34z M2356
7037 c-35 -46 -136 -228 -136 -245 0 -21 18 -4 54 52 94 148 154 287 82 193z
M11371 4538 c-40 -186 -45 -243 -46 -555 0 -237 3 -315 13 -324 10 -10 12 -6
12 21 1 245 30 800 46 883 3 15 1 27 -4 27 -6 0 -15 -23 -21 -52z M11210 3518
c32 -83 74 -162 88 -166 23 -7 12 33 -36 122 -54 103 -84 128 -52 44z M11367
3183 c-7 -37 2 -84 21 -105 19 -23 62 -24 62 -2 0 20 -60 134 -70 134 -4 0
-10 -12 -13 -27z M11446 3035 c-6 -18 2 -45 15 -45 5 0 9 14 9 30 0 32 -14 40
-24 15z M11550 2913 c0 -5 27 -44 60 -87 119 -156 129 -178 161 -367 29 -168
49 -239 68 -239 15 0 14 30 -9 188 -32 220 -54 278 -145 385 -55 65 -135 136
-135 120z M11732 1948 c-7 -7 -12 -20 -12 -31 0 -24 33 -19 38 7 5 24 -11 39
-26 24z M11700 1825 c-15 -40 -23 -75 -16 -75 7 0 31 46 40 78 10 31 -12 28
-24 -3z M11577 1280 c-25 -84 -69 -307 -65 -327 10 -44 94 309 86 359 -3 17
-8 9 -21 -32z M5800 7950 c-57 -9 -101 -43 -81 -63 9 -9 196 46 216 64 11 11
-57 10 -135 -1z M5480 7937 c-34 -17 -33 -51 1 -55 29 -3 64 29 56 53 -8 18
-24 19 -57 2z M5094 7830 c-33 -21 -99 -77 -149 -123 l-89 -84 44 -14 c41 -13
45 -17 42 -42 l-3 -28 33 17 c47 24 141 89 157 108 17 20 13 20 -89 0 -45 -8
-85 -14 -90 -12 -5 2 39 43 96 92 57 49 112 98 121 108 30 33 -10 21 -73 -22z
M5371 7813 c-74 -44 -148 -120 -133 -135 21 -21 162 -37 162 -20 0 5 -19 16
-41 25 l-42 17 72 66 c101 94 94 113 -18 47z M6069 7815 c-25 -8 -54 -24 -65
-36 l-19 -22 50 7 c93 13 239 46 249 56 16 16 -162 11 -215 -5z M5930 7697 c0
-9 128 -47 154 -46 15 0 10 6 -21 20 -42 19 -133 37 -133 26z M5680 7609
c-117 -22 -118 -30 -7 -58 45 -11 103 -27 130 -35 40 -13 47 -13 47 -1 0 8
-13 24 -30 36 -16 12 -27 26 -24 31 3 4 34 8 70 8 61 0 83 11 48 24 -22 9
-181 5 -234 -5z M6151 7590 c25 -15 129 -25 129 -12 0 15 -26 22 -88 22 -41
-1 -52 -3 -41 -10z M6466 7591 c12 -11 164 -51 195 -51 l24 1 -25 14 c-54 29
-221 60 -194 36z M6892 7576 c-35 -6 -64 -15 -65 -21 -1 -5 33 -28 75 -50 43
-23 83 -46 89 -52 12 -12 15 -11 -136 -50 l-70 -18 140 -3 c77 -2 160 0 183 3
43 6 44 7 25 27 -10 11 -54 46 -97 76 l-80 56 31 13 c79 32 30 42 -95 19z
M7574 7535 c-13 -32 26 -46 67 -24 16 8 18 13 8 25 -15 18 -68 18 -75 -1z
M6314 7478 c4 -13 9 -35 12 -50 7 -29 9 -28 -124 -58 -28 -7 -55 -17 -59 -23
-3 -5 18 -33 48 -61 l54 -51 3 33 c3 31 9 35 88 72 46 21 84 44 84 50 0 6 -7
21 -16 34 -18 29 -14 32 53 41 105 14 60 35 -74 35 -73 0 -75 -1 -69 -22z
M5630 7462 c0 -10 32 -19 174 -47 102 -20 115 -20 96 0 -31 30 -270 72 -270
47z M7391 7459 c-48 -9 -67 -22 -57 -37 5 -9 91 -43 146 -58 24 -6 23 -5 -9
29 -18 19 -30 40 -27 46 4 6 39 11 82 11 48 0 73 4 69 10 -7 12 -142 11 -204
-1z M4634 7445 c-9 -23 3 -45 25 -45 22 0 46 34 36 50 -10 16 -55 12 -61 -5z
M5260 7392 c-23 -7 -19 -11 51 -55 42 -26 79 -47 83 -47 4 0 4 16 0 36 l-7 36
134 -6 c147 -8 200 4 109 23 -64 14 -336 23 -370 13z M6742 7308 c-14 -14 2
-48 22 -48 17 0 27 25 20 45 -7 18 -26 19 -42 3z M4615 7299 c-70 -13 -145
-39 -145 -50 0 -12 17 -11 102 6 103 22 148 37 142 46 -6 11 -32 10 -99 -2z
M7110 7241 c24 -14 140 -24 140 -13 0 16 -27 22 -93 22 -40 0 -57 -4 -47 -9z
M6680 7221 c0 -13 56 -59 101 -81 40 -21 85 -25 108 -11 16 11 7 16 -110 66
-86 37 -99 40 -99 26z M4533 7190 c-39 -9 -63 -27 -63 -46 0 -8 8 -14 18 -14
28 0 194 48 205 59 13 13 -109 14 -160 1z M4878 7158 c-16 -18 -44 -53 -60
-78 -17 -25 -42 -57 -56 -72 l-24 -26 32 -17 c53 -27 109 -45 125 -39 23 9 18
39 -10 54 -38 20 -31 28 33 35 31 4 62 8 67 9 6 2 -20 13 -57 25 -37 12 -70
27 -74 32 -3 5 11 28 30 51 53 62 48 84 -6 26z M5230 7150 c-136 -25 -199 -43
-202 -55 -2 -13 80 -71 88 -62 4 4 2 19 -5 33 l-11 26 105 -7 c90 -6 105 -5
105 8 0 8 -7 21 -17 28 -14 12 -2 15 88 19 59 3 104 9 104 15 0 18 -146 14
-255 -5z M4443 7058 c-109 -48 -115 -62 -47 -108 54 -38 69 -32 28 11 -29 30
-29 31 -9 46 11 8 45 28 75 43 30 16 62 34 70 39 36 25 -30 8 -117 -31z M7130
7042 c0 -68 33 -80 68 -26 33 53 30 64 -23 64 l-45 0 0 -38z M4107 7052 c-18
-20 -14 -52 7 -52 18 0 58 40 53 53 -6 20 -42 19 -60 -1z M6270 7053 c0 -16
328 -109 340 -97 10 10 -55 54 -110 75 -60 23 -230 39 -230 22z M6700 7043 c0
-4 16 -18 36 -31 21 -14 34 -18 32 -10 -5 15 -68 54 -68 41z M5917 7009 c14
-14 156 -58 167 -52 13 8 -13 21 -85 43 -76 23 -98 25 -82 9z M5462 7000 c-64
-9 -73 -17 -48 -36 23 -16 227 -96 232 -91 2 2 -23 26 -56 53 l-60 49 108 3
c59 1 114 5 122 9 45 19 -187 29 -298 13z M2942 6963 c-5 -10 -23 -63 -41
-118 -46 -146 -89 -215 -260 -421 -143 -172 -156 -185 -169 -168 -10 14 -13
42 -10 104 5 103 36 170 123 270 l56 65 -34 10 -35 10 60 75 c66 82 83 110 70
110 -16 0 -148 -145 -176 -193 -31 -53 -130 -312 -152 -399 -12 -46 -13 -66
-4 -93 12 -36 61 -95 79 -95 5 0 44 44 85 99 41 54 114 143 161 197 201 229
238 301 260 502 7 63 3 76 -13 45z M3968 6955 c-26 -14 -50 -30 -53 -35 -6 -9
110 44 124 56 14 13 -31 -1 -71 -21z M10420 6942 c0 -8 141 -92 155 -92 15 0
-30 43 -74 72 -43 27 -81 37 -81 20z M4573 6889 c-18 -5 -33 -15 -33 -21 0 -8
34 -9 116 -5 64 3 118 8 121 11 25 25 -130 36 -204 15z M7000 6890 c0 -5 5
-10 10 -10 6 0 10 5 10 10 0 6 -4 10 -10 10 -5 0 -10 -4 -10 -10z M3520 6846
c-124 -52 -230 -115 -230 -136 0 -15 90 24 206 88 97 53 122 73 92 72 -7 -1
-38 -11 -68 -24z M4055 6843 c-11 -3 -24 -10 -30 -15 -13 -13 126 0 140 13 9
9 -73 11 -110 2z M5850 6810 c0 -27 201 -94 267 -88 33 3 20 9 -103 51 -149
49 -164 53 -164 37z M6818 6813 c6 -2 18 -2 25 0 6 3 1 5 -13 5 -14 0 -19 -2
-12 -5z M5206 6801 c5 -5 68 -21 141 -36 106 -21 136 -24 154 -15 35 19 4 37
-84 49 -98 14 -225 15 -211 2z M11050 6802 c0 -17 49 -66 58 -58 3 4 -8 21
-26 39 -18 17 -32 26 -32 19z M10510 6776 c0 -7 58 -53 130 -100 137 -91 160
-104 160 -88 0 11 -126 125 -189 170 -46 33 -101 43 -101 18z M3846 6745 c-68
-24 -96 -40 -96 -55 0 -4 27 -22 60 -39 63 -34 70 -30 45 20 -18 34 -27 29
107 59 54 12 100 26 103 31 4 5 -27 9 -72 9 -57 -1 -97 -7 -147 -25z M3496
6716 c-146 -51 -163 -77 -22 -35 101 30 147 50 140 60 -7 13 -8 13 -118 -25z
M4905 6741 c-4 -7 1 -18 11 -26 34 -24 215 -117 220 -112 3 2 -14 27 -37 53
l-42 49 39 7 c21 4 55 7 74 8 29 0 32 2 17 11 -28 16 -272 25 -282 10z M6615
6720 c-11 -17 5 -50 25 -50 29 0 53 29 39 46 -13 16 -55 19 -64 4z M3142 6688
c-7 -7 -12 -19 -12 -27 0 -11 4 -10 20 4 21 19 26 35 12 35 -4 0 -13 -5 -20
-12z M10910 6675 c0 -16 214 -329 217 -318 6 16 -35 102 -82 172 -42 64 -135
164 -135 146z M6555 6650 c8 -12 130 -50 163 -50 40 0 15 16 -62 39 -74 23
-111 27 -101 11z M5374 6636 c-11 -28 4 -62 46 -105 40 -41 80 -54 80 -26 0 9
-12 34 -26 56 -14 23 -23 44 -20 47 4 3 61 -6 129 -21 145 -32 149 -32 119 -7
-36 30 -147 61 -239 67 -71 5 -83 3 -89 -11z M3360 6610 c-11 -7 0 -10 37 -10
28 0 55 5 58 10 8 13 -75 13 -95 0z M4310 6551 c-23 -6 -21 -8 27 -33 27 -15
104 -61 169 -102 65 -41 120 -73 122 -71 9 8 -48 74 -113 132 -36 32 -65 64
-65 71 0 13 -95 16 -140 3z M4637 6547 c-16 -11 -16 -14 -3 -32 14 -19 16 -19
59 -3 39 14 52 15 108 2 75 -16 138 -18 159 -4 22 14 9 20 -76 35 -100 18
-225 19 -247 2z M11230 6532 c0 -21 18 -42 37 -42 19 0 16 24 -5 43 -24 22
-32 21 -32 -1z M10818 6523 c-10 -50 22 -90 42 -53 7 13 7 27 -2 44 -13 30
-35 34 -40 9z M5084 6515 c-7 -18 12 -92 28 -112 6 -7 19 -13 30 -13 17 0 19
5 13 39 -6 37 -5 38 26 45 17 3 49 6 70 6 22 0 39 4 39 9 0 11 -27 18 -105 26
-33 4 -68 9 -78 12 -10 2 -20 -2 -23 -12z M3240 6480 c0 -5 7 -10 15 -10 8 0
15 5 15 10 0 6 -7 10 -15 10 -8 0 -15 -4 -15 -10z M3832 6478 c-16 -16 3 -38
34 -38 31 0 41 20 19 37 -23 16 -37 17 -53 1z M6130 6455 c0 -2 23 -16 50 -30
28 -14 50 -21 50 -16 0 5 -19 19 -43 30 -44 21 -57 25 -57 16z M4196 6429
c-71 -10 -108 -32 -99 -57 4 -9 18 -30 31 -47 l25 -30 -6 27 c-4 14 -10 33
-13 42 -4 11 0 16 12 16 54 1 295 29 306 36 32 21 -144 29 -256 13z M5814
6361 c9 -14 100 -61 118 -61 7 0 -7 13 -32 29 -53 33 -96 49 -86 32z M3850
6349 c0 -11 61 -89 71 -89 3 0 4 14 1 31 l-4 30 78 -6 c90 -7 85 4 -12 29 -71
18 -134 21 -134 5z M11380 6256 c0 -20 39 -66 56 -66 20 0 17 23 -7 54 -22 28
-49 35 -49 12z M11140 6227 c0 -26 81 -252 96 -267 12 -12 14 -12 14 6 0 34
-39 163 -65 214 -26 51 -45 71 -45 47z M3276 6202 c-2 -4 -1 -14 5 -22 17 -29
8 -30 -58 -5 -91 35 -110 28 -50 -16 27 -19 64 -44 83 -54 l35 -18 34 33 c31
30 40 33 82 31 61 -3 48 10 -36 38 -70 23 -87 25 -95 13z M3550 6173 c0 -12
49 -58 78 -72 30 -16 59 3 40 26 -19 23 -118 61 -118 46z M11470 6090 c0 -16
32 -70 42 -70 11 0 -11 57 -28 71 -11 9 -14 9 -14 -1z M11440 5962 c0 -12 19
-26 26 -19 2 2 -2 10 -11 17 -9 8 -15 8 -15 2z M11220 5850 c0 -18 57 -125 74
-139 26 -22 20 4 -20 80 -33 63 -54 85 -54 59z M11480 5761 c0 -22 62 -79 68
-62 5 16 -37 81 -54 81 -8 0 -14 -9 -14 -19z M11447 5717 c-6 -15 36 -185 53
-217 20 -37 21 -17 4 59 -9 40 -14 75 -10 78 3 3 15 -2 26 -12 37 -33 31 -9
-12 49 -43 58 -52 65 -61 43z M1905 5367 c-45 -17 -102 -55 -109 -72 -7 -19
10 -28 39 -21 22 6 24 3 30 -41 12 -100 34 -205 46 -219 20 -24 28 3 19 61 -9
58 -2 70 44 79 40 8 78 46 105 106 30 67 28 88 -14 106 -41 17 -118 17 -160 1z
m119 -101 c-3 -15 -8 -25 -11 -23 -2 3 -1 17 3 31 3 15 8 25 11 23 2 -3 1 -17
-3 -31z m-84 -16 c0 -20 -5 -30 -15 -30 -18 0 -20 31 -3 48 17 17 18 16 18
-18z M11340 5285 c-16 -19 1 -65 24 -65 20 0 25 20 13 53 -10 31 -19 34 -37
12z M11264 5106 c-7 -29 1 -46 22 -46 9 0 14 11 14 35 0 41 -26 49 -36 11z
M11154 5043 c-67 -83 -71 -95 -45 -132 12 -17 26 -31 30 -31 10 0 21 50 21 92
0 27 2 29 29 23 24 -5 30 -2 36 15 8 26 -2 90 -15 90 -5 0 -30 -26 -56 -57z
M2894 5038 c-7 -24 16 -48 47 -48 32 0 31 -19 -3 -40 l-33 -20 63 0 c39 0 62
4 62 11 0 21 -41 78 -70 99 -36 26 -57 25 -66 -2z M6616 5052 c-3 -5 27 -74
66 -153 52 -103 73 -138 76 -122 6 40 -127 299 -142 275z M2893 4843 c-53 -64
-115 -155 -109 -161 9 -8 53 25 124 92 63 60 66 65 54 90 -6 14 -15 26 -20 26
-5 0 -27 -21 -49 -47z M10952 4859 c-13 -32 -26 -119 -18 -119 3 0 13 14 22
32 l16 31 20 -24 19 -24 -6 25 c-4 14 -15 43 -25 65 l-17 40 -11 -26z M11062
4871 c-20 -12 -10 -46 13 -46 14 0 20 7 20 24 0 27 -13 35 -33 22z M2032 4783
c-103 -131 -124 -166 -117 -196 6 -21 0 -30 -39 -59 -49 -36 -59 -54 -23 -44
12 3 34 6 49 6 21 0 27 5 25 18 -2 16 17 52 141 264 28 50 52 92 52 94 0 18
-29 -9 -88 -83z M6733 4664 c-4 -11 1 -22 12 -31 16 -11 21 -11 33 1 8 8 12
22 9 30 -8 21 -46 21 -54 0z M1392 4554 c-63 -135 -151 -374 -137 -374 16 0
190 430 183 451 -2 6 -23 -29 -46 -77z M2688 4624 c-50 -15 -83 -36 -263 -168
-132 -97 -157 -117 -151 -123 5 -5 87 35 181 90 80 46 325 206 325 213 0 8
-46 2 -92 -12z M6730 4594 c-80 -12 -90 -16 -90 -33 0 -22 39 -123 69 -176
l22 -40 -6 93 c-6 77 -4 97 10 118 18 29 17 41 -5 38z M1831 4439 c-13 -5 -21
-12 -18 -15 9 -9 77 5 77 16 0 12 -27 12 -59 -1z M1747 4375 c-8 -18 11 -31
25 -17 11 11 3 32 -12 32 -4 0 -10 -7 -13 -15z M1843 4375 c-3 -9 -3 -18 0
-22 10 -10 37 6 37 22 0 20 -29 20 -37 0z M6681 4301 c-19 -12 -6 -43 16 -39
21 4 31 48 11 48 -7 0 -19 -4 -27 -9z M6658 4210 c-7 -11 -18 -20 -25 -20 -23
0 -23 -19 -2 -77 48 -129 90 -142 57 -18 -9 35 -10 53 -1 76 19 50 -4 80 -29
39z M6570 3946 c0 -60 7 -86 23 -86 5 0 30 16 54 36 36 30 42 39 32 51 -14 16
-82 53 -99 53 -6 0 -10 -23 -10 -54z M10325 3960 c-16 -11 -38 -25 -47 -32
-14 -10 -25 -10 -54 1 -47 17 -54 9 -84 -100 -30 -113 -21 -129 23 -41 21 39
41 72 45 72 4 0 16 -7 26 -15 25 -19 36 -19 36 -1 0 7 25 35 55 61 52 44 70
75 43 75 -7 0 -26 -9 -43 -20z M6580 3805 c-16 -19 -5 -47 17 -43 11 2 18 12
18 27 0 29 -17 37 -35 16z M1455 3734 c-13 -14 -16 -28 -11 -65 14 -100 43
-150 81 -135 15 5 17 15 13 69 -5 63 -33 137 -54 144 -7 2 -19 -4 -29 -13z
m42 -131 c-3 -10 -5 -4 -5 12 0 17 2 24 5 18 2 -7 2 -21 0 -30z M6491 3650
c-14 -54 -8 -104 12 -97 7 2 13 16 15 30 3 21 9 27 28 27 13 0 24 3 24 7 0 11
-52 83 -59 83 -4 0 -13 -23 -20 -50z M10014 3648 c-55 -60 -138 -178 -130
-185 13 -14 200 189 193 210 -7 23 -25 16 -63 -25z M6460 3485 c-9 -11 -11
-22 -4 -32 13 -21 25 -21 38 -1 8 14 7 21 -5 33 -14 15 -17 15 -29 0z M9847
3368 c-41 -86 -171 -458 -163 -465 7 -7 17 17 112 257 49 124 91 228 92 232 2
5 -3 8 -11 8 -8 0 -22 -15 -30 -32z M6377 3273 c-4 -3 -7 -17 -7 -30 0 -16 6
-23 19 -23 23 0 32 19 19 43 -9 18 -20 22 -31 10z M9966 3164 c-3 -11 -10
-111 -16 -224 -12 -255 -18 -284 -91 -488 -33 -90 -58 -169 -56 -176 8 -25
114 176 152 289 44 130 63 334 46 495 -11 103 -23 140 -35 104z M6346 3153
c-9 -22 10 -41 25 -26 13 13 5 43 -10 43 -5 0 -12 -8 -15 -17z M9621 2702
c-24 -103 -27 -143 -6 -97 25 56 48 166 37 177 -7 7 -17 -19 -31 -80z M9561
2508 c-15 -41 -22 -96 -12 -102 12 -8 19 12 27 74 7 52 -1 66 -15 28z M6268
2354 c-9 -13 -58 -269 -58 -297 1 -22 1 -22 16 -2 24 32 64 172 63 223 0 51
-12 91 -21 76z M9439 2248 c-113 -94 -371 -323 -394 -348 l-20 -23 33 19 c45
26 196 147 318 255 96 85 151 145 141 155 -2 2 -37 -24 -78 -58z M6257 2033
c-2 -4 24 -147 58 -318 95 -469 167 -765 186 -765 11 0 14 -18 -86 485 -98
491 -136 635 -158 598z M406 194 c-10 -47 -15 -88 -12 -91 5 -6 9 7 30 110 7
37 10 67 6 67 -4 0 -15 -39 -24 -86z M720 270 c0 -5 5 -10 10 -10 6 0 10 5 10
10 0 6 -4 10 -10 10 -5 0 -10 -4 -10 -10z M1266 194 c-10 -47 -15 -88 -12 -91
5 -6 9 7 30 110 7 37 10 67 6 67 -4 0 -15 -39 -24 -86z M1346 269 c-3 -8 -10
-41 -16 -74 -6 -33 -14 -68 -16 -77 -3 -10 -1 -18 3 -18 10 0 46 171 38 178
-2 3 -7 -1 -9 -9z M109 241 c-38 -38 -41 -101 -7 -125 29 -20 79 -20 104 0 18
14 18 15 1 10 -53 -17 -69 -17 -92 -2 -69 45 21 166 94 126 12 -6 21 -7 21 -1
0 12 -25 21 -62 21 -19 0 -39 -10 -59 -29z M1110 189 c-28 -45 -49 -83 -47
-85 2 -3 12 7 21 21 14 21 24 25 66 25 43 0 50 -3 50 -19 0 -11 5 -23 10 -26
6 -3 10 -3 10 1 0 20 -44 164 -51 164 -4 0 -30 -37 -59 -81z m75 4 l7 -33 -42
0 c-42 0 -42 0 -28 23 8 12 21 32 29 44 15 25 22 18 34 -34z M260 210 c-22
-22 -27 -79 -8 -98 19 -19 66 -14 88 8 22 22 27 79 8 98 -19 19 -66 14 -88 -8z
m71 0 c25 -14 25 -54 -1 -80 -23 -23 -33 -24 -61 -10 -25 14 -25 54 1 80 23
23 33 24 61 10z M470 210 c-22 -22 -27 -79 -8 -98 19 -19 66 -14 88 8 22 22
27 79 8 98 -19 19 -66 14 -88 -8z m71 0 c25 -14 25 -54 -1 -80 -23 -23 -33
-24 -61 -10 -25 14 -25 54 1 80 23 23 33 24 61 10z M616 204 c-3 -16 -8 -47
-11 -69 -8 -51 10 -26 19 27 5 27 15 42 34 53 18 10 22 14 10 15 -9 0 -20 -5
-24 -11 -5 -8 -9 -8 -14 1 -5 8 -10 3 -14 -16z M717 223 c-2 -4 -7 -26 -11
-48 -4 -22 -9 -48 -12 -57 -3 -10 -1 -18 4 -18 4 0 14 28 20 62 11 58 10 81
-1 61z M775 220 c-1 -3 -5 -23 -9 -45 -4 -22 -9 -48 -12 -57 -3 -10 -1 -18 4
-18 5 0 13 20 17 45 7 53 44 87 74 68 17 -11 19 -28 8 -80 -4 -18 -3 -33 2
-33 16 0 24 99 11 115 -12 14 -87 18 -95 5z M940 210 c-22 -22 -27 -79 -8 -98
15 -15 61 -15 76 0 9 9 12 8 12 -5 0 -9 -12 -24 -26 -34 -21 -13 -32 -15 -55
-6 -16 6 -29 8 -29 3 0 -24 81 -27 102 -2 18 19 50 162 37 162 -5 0 -9 -5 -9
-10 0 -7 -6 -7 -19 0 -30 16 -59 12 -81 -10z m71 0 c29 -16 25 -65 -6 -86 -56
-37 -103 28 -55 76 23 23 33 24 61 10z M1441 211 c-23 -23 -28 -80 -9 -99 19
-19 88 -13 88 9 0 5 -11 4 -24 -2 -54 -25 -89 38 -46 81 23 23 33 24 62 9 16
-9 19 -8 16 3 -8 22 -64 22 -87 -1z M1570 210 c-22 -22 -27 -79 -8 -98 19 -19
66 -14 88 8 22 22 27 79 8 98 -19 19 -66 14 -88 -8z m71 0 c25 -14 25 -54 -1
-80 -23 -23 -33 -24 -61 -10 -25 14 -25 54 1 80 23 23 33 24 61 10z M1716 201
c-3 -14 -8 -44 -11 -66 -8 -51 10 -26 19 27 8 41 35 63 66 53 22 -7 24 -21 11
-77 -5 -22 -5 -38 0 -38 5 0 9 6 9 13 0 68 51 125 85 97 15 -13 15 -35 -1 -92
-3 -10 -1 -18 4 -18 6 0 13 23 17 50 9 63 -5 84 -49 76 -17 -4 -35 -6 -41 -6
-101 8 -104 7 -109 -19z M1360 110 c0 -5 5 -10 10 -10 6 0 10 5 10 10 0 6 -4
10 -10 10 -5 0 -10 -4 -10 -10z"/>
</g>
</svg>
